STARTFONT 2.1
COMMENT
COMMENT Converted from OpenType font "Patriot-Regular.otf" by "otf2bdf 3.0".
COMMENT
FONT -FreeType-Patriot-Medium-R-Normal--28-200-100-100-P-135-ISO10646-1
SIZE 20 100 100
FONTBOUNDINGBOX 44 36 -10 -7
STARTPROPERTIES 19
FOUNDRY "FreeType"
FAMILY_NAME "Patriot"
WEIGHT_NAME "Medium"
SLANT "R"
SETWIDTH_NAME "Normal"
ADD_STYLE_NAME ""
PIXEL_SIZE 28
POINT_SIZE 200
RESOLUTION_X 100
RESOLUTION_Y 100
SPACING "P"
AVERAGE_WIDTH 135
CHARSET_REGISTRY "ISO10646"
CHARSET_ENCODING "1"
FONT_ASCENT 28
FONT_DESCENT 5
COPYRIGHT "Copyright © 2020 by Behalf Studio. All rights reserved."
_OTF_FONTFILE "Patriot-Regular.otf"
_OTF_PSNAME "Patriot-Regular"
ENDPROPERTIES
CHARS 426
STARTCHAR 0020
ENCODING 32
SWIDTH 360 0
DWIDTH 10 0
BBX 0 0 0 0
BITMAP
ENDCHAR
STARTCHAR 0021
ENCODING 33
SWIDTH 252 0
DWIDTH 7 0
BBX 5 19 1 0
BITMAP
70
70
70
70
70
70
70
70
70
70
70
70
00
00
00
20
70
F8
70
ENDCHAR
STARTCHAR 0022
ENCODING 34
SWIDTH 288 0
DWIDTH 8 0
BBX 5 6 2 13
BITMAP
98
98
98
98
98
98
ENDCHAR
STARTCHAR 0023
ENCODING 35
SWIDTH 612 0
DWIDTH 17 0
BBX 15 19 1 0
BITMAP
0618
0618
0618
0E18
0C18
0C38
7FFE
0C30
0C30
0C30
1C30
1830
FFFC
1870
1860
1860
1860
3860
3060
ENDCHAR
STARTCHAR 0024
ENCODING 36
SWIDTH 540 0
DWIDTH 15 0
BBX 12 24 2 -2
BITMAP
0600
0600
1F00
3F80
7FC0
76E0
E6E0
E600
7600
7E00
3E00
1F00
0780
07C0
06E0
0660
0670
C670
E660
F7E0
7FC0
3F80
0600
0600
ENDCHAR
STARTCHAR 0025
ENCODING 37
SWIDTH 864 0
DWIDTH 24 0
BBX 22 20 1 0
BITMAP
1E0060
3F80C0
7181C0
60C180
E0C300
60C700
61C600
7F8C00
3F1C00
001800
003000
0061E0
00E7F8
00C718
018E1C
038C0C
030E0C
06061C
0E07F8
0C03F0
ENDCHAR
STARTCHAR 0026
ENCODING 38
SWIDTH 648 0
DWIDTH 18 0
BBX 16 20 1 0
BITMAP
0780
1FE0
3FF0
3870
7020
7000
7000
3000
3E00
1FFF
3FFF
780C
700C
601C
E01C
601C
7038
7878
3FF0
1FC0
ENDCHAR
STARTCHAR 0027
ENCODING 39
SWIDTH 144 0
DWIDTH 4 0
BBX 2 6 1 13
BITMAP
C0
C0
C0
C0
C0
C0
ENDCHAR
STARTCHAR 0028
ENCODING 40
SWIDTH 324 0
DWIDTH 9 0
BBX 7 26 1 -4
BITMAP
0C
0C
1C
18
30
30
70
60
60
60
60
E0
E0
E0
60
60
60
60
60
30
30
38
18
1C
0E
04
ENDCHAR
STARTCHAR 0029
ENCODING 41
SWIDTH 324 0
DWIDTH 9 0
BBX 6 25 2 -4
BITMAP
C0
C0
E0
60
30
30
38
18
18
18
18
0C
0C
0C
0C
18
18
18
18
30
30
70
60
E0
C0
ENDCHAR
STARTCHAR 002A
ENCODING 42
SWIDTH 432 0
DWIDTH 12 0
BBX 9 9 2 10
BITMAP
1800
1C00
1800
FB80
FF80
1800
3600
7600
6700
ENDCHAR
STARTCHAR 002B
ENCODING 43
SWIDTH 540 0
DWIDTH 15 0
BBX 13 12 1 3
BITMAP
0300
0300
0300
0300
0300
FFF8
FFF8
0300
0300
0300
0300
0300
ENDCHAR
STARTCHAR 002C
ENCODING 44
SWIDTH 252 0
DWIDTH 7 0
BBX 4 5 2 -3
BITMAP
70
60
E0
C0
80
ENDCHAR
STARTCHAR 002D
ENCODING 45
SWIDTH 432 0
DWIDTH 12 0
BBX 10 2 1 5
BITMAP
FFC0
FFC0
ENDCHAR
STARTCHAR 002E
ENCODING 46
SWIDTH 252 0
DWIDTH 7 0
BBX 5 4 1 0
BITMAP
20
70
F8
70
ENDCHAR
STARTCHAR 002F
ENCODING 47
SWIDTH 360 0
DWIDTH 10 0
BBX 7 20 2 0
BITMAP
06
06
06
0C
0C
0C
1C
18
18
18
30
30
30
70
60
60
60
C0
C0
C0
ENDCHAR
STARTCHAR 0030
ENCODING 48
SWIDTH 684 0
DWIDTH 19 0
BBX 18 20 1 0
BITMAP
03E000
0FFC00
1FFE00
3C0F00
700700
700380
E00180
E001C0
E001C0
C001C0
C001C0
C001C0
E001C0
E00180
600380
700380
380700
3C1E00
1FFC00
07F800
ENDCHAR
STARTCHAR 0031
ENCODING 49
SWIDTH 288 0
DWIDTH 8 0
BBX 6 19 1 0
BITMAP
1C
FC
FC
FC
1C
1C
1C
1C
1C
1C
1C
1C
1C
1C
1C
1C
1C
1C
1C
ENDCHAR
STARTCHAR 0032
ENCODING 50
SWIDTH 540 0
DWIDTH 15 0
BBX 13 20 1 0
BITMAP
0F80
3FE0
7FF0
7070
E038
E038
6038
0038
0030
0070
00E0
01C0
03C0
0780
0F00
1E00
3C00
7800
7FF8
FFF8
ENDCHAR
STARTCHAR 0033
ENCODING 51
SWIDTH 504 0
DWIDTH 14 0
BBX 13 19 1 0
BITMAP
FFF0
FFE0
01C0
0380
0700
0E00
1F80
3FE0
30F0
0070
0038
0038
0038
0038
0030
4070
F0F0
7FE0
3F80
ENDCHAR
STARTCHAR 0034
ENCODING 52
SWIDTH 504 0
DWIDTH 14 0
BBX 14 19 0 0
BITMAP
01F0
07F0
0F30
1C30
3830
3030
7030
6030
6030
E030
E030
FFFC
FFFC
0030
0030
0030
0030
0030
0030
ENDCHAR
STARTCHAR 0035
ENCODING 53
SWIDTH 540 0
DWIDTH 15 0
BBX 13 19 1 0
BITMAP
7FF0
7FF0
6000
6000
6000
6000
7FC0
7FE0
F070
6038
0038
0018
0018
0038
0038
6070
F0F0
7FE0
1FC0
ENDCHAR
STARTCHAR 0036
ENCODING 54
SWIDTH 576 0
DWIDTH 16 0
BBX 15 19 1 0
BITMAP
01C0
0380
0700
0E00
0E00
1FE0
3FF0
3C78
701C
600E
E00E
E00E
E00E
E00E
600E
701C
383C
3FF8
0FE0
ENDCHAR
STARTCHAR 0037
ENCODING 55
SWIDTH 432 0
DWIDTH 12 0
BBX 12 19 1 0
BITMAP
FFF0
FFE0
00E0
00C0
01C0
01C0
0180
7FC0
7FC0
0700
0700
0600
0E00
0C00
1C00
1C00
1800
3800
3000
ENDCHAR
STARTCHAR 0038
ENCODING 56
SWIDTH 540 0
DWIDTH 15 0
BBX 14 20 1 0
BITMAP
0780
1FC0
1CE0
3860
3870
3870
18E0
1FE0
3FF0
7878
E038
E01C
C01C
C01C
C01C
E01C
E038
7878
3FF0
1FE0
ENDCHAR
STARTCHAR 0039
ENCODING 57
SWIDTH 576 0
DWIDTH 16 0
BBX 15 20 1 0
BITMAP
07C0
1FF0
3FF8
703C
601C
E00C
E00E
C00E
E00E
E00C
601C
703C
3FF8
1FF0
0370
00E0
01C0
0380
0380
0700
ENDCHAR
STARTCHAR 003A
ENCODING 58
SWIDTH 252 0
DWIDTH 7 0
BBX 5 13 1 0
BITMAP
70
F8
70
20
00
00
00
00
00
20
70
F8
70
ENDCHAR
STARTCHAR 003B
ENCODING 59
SWIDTH 252 0
DWIDTH 7 0
BBX 4 16 2 -3
BITMAP
70
F0
70
20
00
00
00
00
00
00
00
70
60
E0
C0
80
ENDCHAR
STARTCHAR 003C
ENCODING 60
SWIDTH 540 0
DWIDTH 15 0
BBX 13 11 1 3
BITMAP
0038
00F8
07E0
3F00
F800
E000
7C00
1F80
03F0
0078
0018
ENDCHAR
STARTCHAR 003D
ENCODING 61
SWIDTH 540 0
DWIDTH 15 0
BBX 13 8 1 5
BITMAP
FFF8
FFF8
0000
0000
0000
0000
FFF8
FFF8
ENDCHAR
STARTCHAR 003E
ENCODING 62
SWIDTH 540 0
DWIDTH 15 0
BBX 13 11 1 3
BITMAP
E000
FC00
1F00
03E0
00F8
0038
00F8
07C0
3F00
F800
C000
ENDCHAR
STARTCHAR 003F
ENCODING 63
SWIDTH 396 0
DWIDTH 11 0
BBX 8 20 2 0
BITMAP
38
7E
FF
C3
43
03
07
0E
0C
1C
18
38
38
38
00
00
10
38
3C
38
ENDCHAR
STARTCHAR 0040
ENCODING 64
SWIDTH 792 0
DWIDTH 22 0
BBX 20 20 1 0
BITMAP
00F800
07FF00
0E0380
1C00C0
300060
307060
61FE30
618C30
438C30
C30C30
C30C20
430C60
639CE0
61F7C0
60C300
300000
180000
1C01C0
078780
03FE00
ENDCHAR
STARTCHAR 0041
ENCODING 65
SWIDTH 540 0
DWIDTH 15 0
BBX 14 20 1 0
BITMAP
0F00
3FC0
3FE0
70E0
6070
E070
E070
E070
E070
E070
E070
E070
E070
E070
E070
E070
E070
E070
FFFC
FFFC
ENDCHAR
STARTCHAR 0042
ENCODING 66
SWIDTH 576 0
DWIDTH 16 0
BBX 15 19 1 0
BITMAP
3FF0
3FF8
303C
301C
300E
300C
301C
303C
FFF8
FFF8
303C
300E
300E
300E
300E
300E
307C
3FF8
3FF0
ENDCHAR
STARTCHAR 0043
ENCODING 67
SWIDTH 684 0
DWIDTH 19 0
BBX 18 20 1 0
BITMAP
01F800
07FE00
1FFF80
3E03C0
380180
700000
600000
E00000
E00000
E00000
E00000
E00000
E00000
E00000
700000
780000
3C0380
1F0780
0FFF00
03FC00
ENDCHAR
STARTCHAR 0044
ENCODING 68
SWIDTH 648 0
DWIDTH 18 0
BBX 16 19 1 0
BITMAP
FFE0
FFF0
E07C
E01C
E00E
E006
E007
E007
E007
E007
E007
E007
E007
E00E
E00E
E03C
E3F8
FFF0
FFC0
ENDCHAR
STARTCHAR 0045
ENCODING 69
SWIDTH 468 0
DWIDTH 13 0
BBX 13 19 1 0
BITMAP
3F80
3F80
3000
3000
3000
3000
3000
3000
FFE0
FFE0
3000
3000
3000
3000
3000
3000
3000
3FF8
3FF8
ENDCHAR
STARTCHAR 0046
ENCODING 70
SWIDTH 432 0
DWIDTH 12 0
BBX 12 19 1 0
BITMAP
3FF0
3FF0
3800
3800
3800
3800
3800
3800
3800
FFE0
FFE0
3800
3800
3800
3800
3800
3800
3800
3800
ENDCHAR
STARTCHAR 0047
ENCODING 71
SWIDTH 828 0
DWIDTH 23 0
BBX 22 20 1 0
BITMAP
01F800
07FE00
1FFF80
3E03C0
380180
700000
700000
E00000
E00000
E03FFC
E03FFC
E00070
E00070
E00070
7000E0
7000E0
3C01C0
1F0780
0FFF00
03FE00
ENDCHAR
STARTCHAR 0048
ENCODING 72
SWIDTH 540 0
DWIDTH 15 0
BBX 13 19 1 0
BITMAP
3038
3038
3038
3038
3038
3038
3038
FFF8
FFF8
FFF8
3038
3038
3038
3038
3038
3038
3038
3038
3038
ENDCHAR
STARTCHAR 0049
ENCODING 73
SWIDTH 180 0
DWIDTH 5 0
BBX 6 22 0 0
BITMAP
20
20
30
FC
70
50
88
00
00
00
70
70
70
70
70
70
70
70
70
70
70
70
ENDCHAR
STARTCHAR 004A
ENCODING 74
SWIDTH 432 0
DWIDTH 12 0
BBX 11 19 1 0
BITMAP
03E0
03E0
00E0
00E0
00E0
00E0
00E0
00E0
00E0
00E0
00E0
00E0
00C0
00C0
00C0
C1C0
E3C0
FF80
7F00
ENDCHAR
STARTCHAR 004B
ENCODING 75
SWIDTH 504 0
DWIDTH 14 0
BBX 13 19 1 0
BITMAP
3070
3070
3070
3060
3060
3060
30E0
31E0
FFC0
FFE0
30F0
3070
3030
3038
3038
3038
3038
3038
3038
ENDCHAR
STARTCHAR 004C
ENCODING 76
SWIDTH 432 0
DWIDTH 12 0
BBX 11 19 1 0
BITMAP
E000
E000
E000
E000
E000
E000
E000
E000
E000
E000
E000
E000
E000
E000
E000
E000
E000
FFE0
FFE0
ENDCHAR
STARTCHAR 004D
ENCODING 77
SWIDTH 864 0
DWIDTH 24 0
BBX 22 20 1 0
BITMAP
402000
E0301C
F0381C
783E1C
7E3F1C
7F3F9C
77B9FC
71F8FC
70F87C
70783C
70381C
70381C
70381C
70381C
70381C
70381C
70381C
70381C
70381C
70381C
ENDCHAR
STARTCHAR 004E
ENCODING 78
SWIDTH 504 0
DWIDTH 14 0
BBX 12 20 1 0
BITMAP
4000
E070
F070
7870
7E70
6F70
67F0
63F0
60F0
6070
6070
6070
6070
6070
6070
6070
6070
6070
6070
6070
ENDCHAR
STARTCHAR 004F
ENCODING 79
SWIDTH 792 0
DWIDTH 22 0
BBX 21 20 1 0
BITMAP
01F800
07FF00
1FFF80
3E03C0
3800E0
700070
700070
E00030
E00038
E00038
E00038
E00038
E00038
E00070
700070
7000E0
3C01E0
1F07C0
0FFF80
03FE00
ENDCHAR
STARTCHAR 0050
ENCODING 80
SWIDTH 540 0
DWIDTH 15 0
BBX 14 19 1 0
BITMAP
7FE0
7FF8
7038
701C
701C
701C
701C
701C
7038
FFF8
FFE0
FE00
7000
7000
7000
7000
7000
7000
7000
ENDCHAR
STARTCHAR 0051
ENCODING 81
SWIDTH 792 0
DWIDTH 22 0
BBX 21 20 1 -1
BITMAP
01F800
07FF00
1FFF80
3E03C0
3800E0
700070
700070
E00030
E00038
E00038
E00038
E00038
E00038
E00070
700670
7007E0
3C03E0
1F07C0
0FFFE0
03FE60
ENDCHAR
STARTCHAR 0052
ENCODING 82
SWIDTH 576 0
DWIDTH 16 0
BBX 14 19 1 0
BITMAP
3FF0
3FF8
303C
301C
300C
300C
300C
301C
3038
FFF8
FFE0
30F0
3038
3038
3018
301C
301C
301C
301C
ENDCHAR
STARTCHAR 0053
ENCODING 83
SWIDTH 468 0
DWIDTH 13 0
BBX 12 20 1 0
BITMAP
0F00
3FC0
7FE0
70E0
6060
6040
7000
7800
3E00
1F00
07C0
01E0
00E0
0070
0070
E070
E070
70E0
7FE0
1FC0
ENDCHAR
STARTCHAR 0054
ENCODING 84
SWIDTH 468 0
DWIDTH 13 0
BBX 12 19 1 0
BITMAP
FFF0
FFF0
0600
0600
0600
0600
0600
0600
0600
0600
0600
0600
0600
0600
0600
0600
0600
0600
0600
ENDCHAR
STARTCHAR 0055
ENCODING 85
SWIDTH 504 0
DWIDTH 14 0
BBX 12 19 1 0
BITMAP
E070
E070
E070
E070
E070
E070
E070
E070
E070
E070
E070
E070
E070
E070
E070
6070
70E0
3FC0
1F80
ENDCHAR
STARTCHAR 0056
ENCODING 86
SWIDTH 468 0
DWIDTH 13 0
BBX 12 19 0 0
BITMAP
E070
E070
E070
E070
E070
E070
E070
E070
E070
E070
E060
6060
60E0
70E0
70E0
39C0
39C0
1F80
0F00
ENDCHAR
STARTCHAR 0057
ENCODING 87
SWIDTH 756 0
DWIDTH 21 0
BBX 20 19 0 0
BITMAP
E07030
E07030
E07030
E07030
E07030
E07030
E07030
E07030
E07030
E07030
E07030
607070
60F070
70F070
70F860
39F8E0
39DDC0
1F8FC0
0F0780
ENDCHAR
STARTCHAR 0058
ENCODING 88
SWIDTH 504 0
DWIDTH 14 0
BBX 12 19 1 0
BITMAP
E070
E070
E070
E070
E070
7070
78E0
3FC0
3FC0
79E0
7070
6070
E070
E070
E070
E070
E070
E070
E070
ENDCHAR
STARTCHAR 0059
ENCODING 89
SWIDTH 468 0
DWIDTH 13 0
BBX 12 19 1 0
BITMAP
E070
E070
E070
E070
E070
E070
E070
E070
E070
E070
E060
70E0
3FC0
1F80
0600
0600
0600
0600
0600
ENDCHAR
STARTCHAR 005A
ENCODING 90
SWIDTH 504 0
DWIDTH 14 0
BBX 12 19 1 0
BITMAP
FFF0
FFF0
0060
00E0
01C0
01C0
0380
0300
0700
0E00
0E00
1C00
1C00
3800
7000
7000
E000
FFF0
FFF0
ENDCHAR
STARTCHAR 005B
ENCODING 91
SWIDTH 216 0
DWIDTH 6 0
BBX 4 27 1 -4
BITMAP
F0
F0
C0
C0
C0
C0
C0
C0
C0
C0
C0
C0
C0
C0
C0
C0
C0
C0
C0
C0
C0
C0
C0
C0
C0
F0
F0
ENDCHAR
STARTCHAR 005C
ENCODING 92
SWIDTH 360 0
DWIDTH 10 0
BBX 7 20 2 0
BITMAP
C0
C0
C0
E0
60
60
60
30
30
30
38
18
18
18
0C
0C
0C
0E
06
06
ENDCHAR
STARTCHAR 005D
ENCODING 93
SWIDTH 216 0
DWIDTH 6 0
BBX 4 27 1 -4
BITMAP
F0
F0
30
30
30
30
30
30
30
30
30
30
30
30
30
30
30
30
30
30
30
30
30
30
30
F0
F0
ENDCHAR
STARTCHAR 005E
ENCODING 94
SWIDTH 468 0
DWIDTH 13 0
BBX 10 7 2 10
BITMAP
1C00
1E00
3600
3300
6300
E180
C1C0
ENDCHAR
STARTCHAR 005F
ENCODING 95
SWIDTH 504 0
DWIDTH 14 0
BBX 12 2 1 -3
BITMAP
FFF0
FFF0
ENDCHAR
STARTCHAR 0060
ENCODING 96
SWIDTH 144 0
DWIDTH 4 0
BBX 4 4 0 21
BITMAP
C0
60
30
30
ENDCHAR
STARTCHAR 0061
ENCODING 97
SWIDTH 540 0
DWIDTH 15 0
BBX 14 20 1 0
BITMAP
0F00
3FC0
3FE0
70E0
6070
E070
E070
E070
E070
E070
E070
E070
E070
E070
E070
E070
E070
E070
FFFC
FFFC
ENDCHAR
STARTCHAR 0062
ENCODING 98
SWIDTH 576 0
DWIDTH 16 0
BBX 15 19 1 0
BITMAP
3FF0
3FF8
303C
301C
300E
300C
301C
303C
FFF8
FFF8
303C
300E
300E
300E
300E
300E
307C
3FF8
3FF0
ENDCHAR
STARTCHAR 0063
ENCODING 99
SWIDTH 684 0
DWIDTH 19 0
BBX 18 20 1 0
BITMAP
01F800
07FE00
1FFF80
3E03C0
380180
700000
600000
E00000
E00000
E00000
E00000
E00000
E00000
E00000
700000
780000
3C0380
1F0780
0FFF00
03FC00
ENDCHAR
STARTCHAR 0064
ENCODING 100
SWIDTH 648 0
DWIDTH 18 0
BBX 16 19 1 0
BITMAP
FFE0
FFF0
E07C
E01C
E00E
E006
E007
E007
E007
E007
E007
E007
E007
E00E
E00E
E03C
E3F8
FFF0
FFC0
ENDCHAR
STARTCHAR 0065
ENCODING 101
SWIDTH 468 0
DWIDTH 13 0
BBX 13 19 1 0
BITMAP
3F80
3F80
3000
3000
3000
3000
3000
3000
FFE0
FFE0
3000
3000
3000
3000
3000
3000
3000
3FF8
3FF8
ENDCHAR
STARTCHAR 0066
ENCODING 102
SWIDTH 432 0
DWIDTH 12 0
BBX 12 19 1 0
BITMAP
3FF0
3FF0
3800
3800
3800
3800
3800
3800
3800
FFE0
FFE0
3800
3800
3800
3800
3800
3800
3800
3800
ENDCHAR
STARTCHAR 0067
ENCODING 103
SWIDTH 828 0
DWIDTH 23 0
BBX 22 20 1 0
BITMAP
01F800
07FE00
1FFF80
3E03C0
380180
700000
700000
E00000
E00000
E03FFC
E03FFC
E00070
E00070
E00070
7000E0
7000E0
3C01C0
1F0780
0FFF00
03FE00
ENDCHAR
STARTCHAR 0068
ENCODING 104
SWIDTH 540 0
DWIDTH 15 0
BBX 13 19 1 0
BITMAP
3038
3038
3038
3038
3038
3038
3038
FFF8
FFF8
FFF8
3038
3038
3038
3038
3038
3038
3038
3038
3038
ENDCHAR
STARTCHAR 0069
ENCODING 105
SWIDTH 180 0
DWIDTH 5 0
BBX 6 22 0 0
BITMAP
20
20
30
FC
70
50
88
00
00
00
70
70
70
70
70
70
70
70
70
70
70
70
ENDCHAR
STARTCHAR 006A
ENCODING 106
SWIDTH 432 0
DWIDTH 12 0
BBX 11 19 1 0
BITMAP
03E0
03E0
00E0
00E0
00E0
00E0
00E0
00E0
00E0
00E0
00E0
00E0
00C0
00C0
00C0
C1C0
E3C0
FF80
7F00
ENDCHAR
STARTCHAR 006B
ENCODING 107
SWIDTH 504 0
DWIDTH 14 0
BBX 13 19 1 0
BITMAP
3070
3070
3070
3060
3060
3060
30E0
31E0
FFC0
FFE0
30F0
3070
3030
3038
3038
3038
3038
3038
3038
ENDCHAR
STARTCHAR 006C
ENCODING 108
SWIDTH 432 0
DWIDTH 12 0
BBX 11 19 1 0
BITMAP
E000
E000
E000
E000
E000
E000
E000
E000
E000
E000
E000
E000
E000
E000
E000
E000
E000
FFE0
FFE0
ENDCHAR
STARTCHAR 006D
ENCODING 109
SWIDTH 864 0
DWIDTH 24 0
BBX 22 20 1 0
BITMAP
402000
E0301C
F0381C
783E1C
7E3F1C
7F3F9C
77B9FC
71F8FC
70F87C
70783C
70381C
70381C
70381C
70381C
70381C
70381C
70381C
70381C
70381C
70381C
ENDCHAR
STARTCHAR 006E
ENCODING 110
SWIDTH 504 0
DWIDTH 14 0
BBX 12 20 1 0
BITMAP
4000
E070
F070
7870
7E70
6F70
67F0
63F0
60F0
6070
6070
6070
6070
6070
6070
6070
6070
6070
6070
6070
ENDCHAR
STARTCHAR 006F
ENCODING 111
SWIDTH 792 0
DWIDTH 22 0
BBX 21 20 1 0
BITMAP
01F800
07FF00
1FFF80
3E03C0
3800E0
700070
700070
E00030
E00038
E00038
E00038
E00038
E00038
E00070
700070
7000E0
3C01E0
1F07C0
0FFF80
03FE00
ENDCHAR
STARTCHAR 0070
ENCODING 112
SWIDTH 540 0
DWIDTH 15 0
BBX 14 19 1 0
BITMAP
7FE0
7FF8
7038
701C
701C
701C
701C
701C
7038
FFF8
FFE0
FE00
7000
7000
7000
7000
7000
7000
7000
ENDCHAR
STARTCHAR 0071
ENCODING 113
SWIDTH 792 0
DWIDTH 22 0
BBX 21 20 1 -1
BITMAP
01F800
07FF00
1FFF80
3E03C0
3800E0
700070
700070
E00030
E00038
E00038
E00038
E00038
E00038
E00070
700670
7007E0
3C03E0
1F07C0
0FFFE0
03FE60
ENDCHAR
STARTCHAR 0072
ENCODING 114
SWIDTH 576 0
DWIDTH 16 0
BBX 14 19 1 0
BITMAP
3FF0
3FF8
303C
301C
300C
300C
300C
301C
3038
FFF8
FFE0
30F0
3038
3038
3018
301C
301C
301C
301C
ENDCHAR
STARTCHAR 0073
ENCODING 115
SWIDTH 468 0
DWIDTH 13 0
BBX 12 20 1 0
BITMAP
0F00
3FC0
7FE0
70E0
6060
6040
7000
7800
3E00
1F00
07C0
01E0
00E0
0070
0070
E070
E070
70E0
7FE0
1FC0
ENDCHAR
STARTCHAR 0074
ENCODING 116
SWIDTH 468 0
DWIDTH 13 0
BBX 12 19 1 0
BITMAP
FFF0
FFF0
0600
0600
0600
0600
0600
0600
0600
0600
0600
0600
0600
0600
0600
0600
0600
0600
0600
ENDCHAR
STARTCHAR 0075
ENCODING 117
SWIDTH 504 0
DWIDTH 14 0
BBX 12 19 1 0
BITMAP
E070
E070
E070
E070
E070
E070
E070
E070
E070
E070
E070
E070
E070
E070
E070
6070
70E0
3FC0
1F80
ENDCHAR
STARTCHAR 0076
ENCODING 118
SWIDTH 468 0
DWIDTH 13 0
BBX 12 19 0 0
BITMAP
E070
E070
E070
E070
E070
E070
E070
E070
E070
E070
E060
6060
60E0
70E0
70E0
39C0
39C0
1F80
0F00
ENDCHAR
STARTCHAR 0077
ENCODING 119
SWIDTH 756 0
DWIDTH 21 0
BBX 20 19 0 0
BITMAP
E07030
E07030
E07030
E07030
E07030
E07030
E07030
E07030
E07030
E07030
E07030
607070
60F070
70F070
70F860
39F8E0
39DDC0
1F8FC0
0F0780
ENDCHAR
STARTCHAR 0078
ENCODING 120
SWIDTH 504 0
DWIDTH 14 0
BBX 12 19 1 0
BITMAP
E070
E070
E070
E070
E070
7070
78E0
3FC0
3FC0
79E0
7070
6070
E070
E070
E070
E070
E070
E070
E070
ENDCHAR
STARTCHAR 0079
ENCODING 121
SWIDTH 468 0
DWIDTH 13 0
BBX 12 19 1 0
BITMAP
E070
E070
E070
E070
E070
E070
E070
E070
E070
E070
E060
70E0
3FC0
1F80
0600
0600
0600
0600
0600
ENDCHAR
STARTCHAR 007A
ENCODING 122
SWIDTH 504 0
DWIDTH 14 0
BBX 12 19 1 0
BITMAP
FFF0
FFF0
0060
00E0
01C0
01C0
0380
0300
0700
0E00
0E00
1C00
1C00
3800
7000
7000
E000
FFF0
FFF0
ENDCHAR
STARTCHAR 007B
ENCODING 123
SWIDTH 324 0
DWIDTH 9 0
BBX 7 27 1 -4
BITMAP
06
1E
18
18
18
18
18
18
18
18
18
30
70
E0
F0
30
38
18
18
18
18
18
18
18
18
1E
0E
ENDCHAR
STARTCHAR 007C
ENCODING 124
SWIDTH 144 0
DWIDTH 4 0
BBX 2 23 1 -3
BITMAP
C0
C0
C0
C0
C0
C0
C0
C0
C0
C0
C0
C0
C0
C0
C0
C0
C0
C0
C0
C0
C0
C0
C0
ENDCHAR
STARTCHAR 007D
ENCODING 125
SWIDTH 324 0
DWIDTH 9 0
BBX 7 27 1 -4
BITMAP
E0
F0
38
18
18
18
18
18
18
18
18
18
0E
0E
0E
18
18
18
18
18
18
18
18
18
18
F0
E0
ENDCHAR
STARTCHAR 007E
ENCODING 126
SWIDTH 540 0
DWIDTH 15 0
BBX 13 4 1 7
BITMAP
1000
FFF8
FFF8
00E0
ENDCHAR
STARTCHAR 00A1
ENCODING 161
SWIDTH 252 0
DWIDTH 7 0
BBX 5 20 1 -3
BITMAP
20
70
F8
70
00
00
00
70
70
70
70
70
70
70
70
70
70
70
70
70
ENDCHAR
STARTCHAR 00A2
ENCODING 162
SWIDTH 504 0
DWIDTH 14 0
BBX 12 17 1 1
BITMAP
0300
0300
0FC0
3FF0
3320
7300
6300
6300
E300
6300
6300
7320
3B70
1FE0
0780
0300
0300
ENDCHAR
STARTCHAR 00A3
ENCODING 163
SWIDTH 540 0
DWIDTH 15 0
BBX 13 20 1 0
BITMAP
01E0
07F8
1FF8
1C08
3800
3800
3800
3800
3800
FFE0
FFE0
0C00
0E00
0E00
0E00
0E00
1E00
FC00
FFF8
FFF8
ENDCHAR
STARTCHAR 00A4
ENCODING 164
SWIDTH 540 0
DWIDTH 15 0
BBX 12 12 2 2
BITMAP
C030
FFF0
79E0
6060
4060
C030
C030
C020
6060
70E0
FFF0
C730
ENDCHAR
STARTCHAR 00A5
ENCODING 165
SWIDTH 612 0
DWIDTH 17 0
BBX 14 19 2 0
BITMAP
E01C
F038
7038
3870
3870
1CE0
1CE0
0FC0
0FC0
0780
7FF0
0300
0300
7FF0
7FF0
0300
0300
0300
0300
ENDCHAR
STARTCHAR 00A6
ENCODING 166
SWIDTH 144 0
DWIDTH 4 0
BBX 2 23 1 -3
BITMAP
C0
C0
C0
C0
C0
C0
C0
C0
C0
00
00
00
00
00
C0
C0
C0
C0
C0
C0
C0
C0
C0
ENDCHAR
STARTCHAR 00A7
ENCODING 167
SWIDTH 468 0
DWIDTH 13 0
BBX 10 23 2 -3
BITMAP
1C00
7F00
7F80
E180
E180
6000
7800
3C00
3F00
FF80
C180
C1C0
C1C0
E380
7F00
3C00
0F00
0300
0380
E380
E780
7F00
3E00
ENDCHAR
STARTCHAR 00A8
ENCODING 168
SWIDTH 360 0
DWIDTH 10 0
BBX 10 4 0 21
BITMAP
6180
F3C0
F3C0
71C0
ENDCHAR
STARTCHAR 00A9
ENCODING 169
SWIDTH 828 0
DWIDTH 23 0
BBX 21 20 1 0
BITMAP
00FC00
07FF00
0E01C0
1800E0
300060
20F830
61FE10
438418
430018
C20018
C60018
420018
430018
638C18
61FC30
303030
180060
1C00C0
070380
03FE00
ENDCHAR
STARTCHAR 00AB
ENCODING 171
SWIDTH 540 0
DWIDTH 15 0
BBX 12 13 2 2
BITMAP
0E70
1C60
18C0
31C0
7380
E300
C600
E700
7380
31C0
18C0
1C60
0E70
ENDCHAR
STARTCHAR 00AC
ENCODING 172
SWIDTH 540 0
DWIDTH 15 0
BBX 13 7 1 3
BITMAP
FFF8
FFF8
0018
0018
0018
0018
0018
ENDCHAR
STARTCHAR 00AE
ENCODING 174
SWIDTH 468 0
DWIDTH 13 0
BBX 11 11 1 9
BITMAP
1F00
30C0
6E60
4B20
4920
DE20
4920
4920
6040
39C0
0600
ENDCHAR
STARTCHAR 00AF
ENCODING 175
SWIDTH 252 0
DWIDTH 7 0
BBX 8 2 0 22
BITMAP
FF
FF
ENDCHAR
STARTCHAR 00B0
ENCODING 176
SWIDTH 324 0
DWIDTH 9 0
BBX 7 6 1 13
BITMAP
38
7C
46
C2
46
7C
ENDCHAR
STARTCHAR 00B1
ENCODING 177
SWIDTH 540 0
DWIDTH 15 0
BBX 13 11 1 3
BITMAP
0300
0300
0300
FFF8
FFF8
0300
0300
0300
0000
FFF8
FFF8
ENDCHAR
STARTCHAR 00B4
ENCODING 180
SWIDTH 144 0
DWIDTH 4 0
BBX 4 4 0 21
BITMAP
30
60
60
C0
ENDCHAR
STARTCHAR 00B6
ENCODING 182
SWIDTH 468 0
DWIDTH 13 0
BBX 11 23 1 -3
BITMAP
0660
1E60
3E60
7E60
7E60
FE60
FE60
7E60
7E60
3E60
1E60
0260
0260
0260
0260
0260
0260
0260
0260
0260
0260
0260
0260
ENDCHAR
STARTCHAR 00B7
ENCODING 183
SWIDTH 252 0
DWIDTH 7 0
BBX 5 4 1 5
BITMAP
70
F8
70
30
ENDCHAR
STARTCHAR 00B8
ENCODING 184
SWIDTH 216 0
DWIDTH 6 0
BBX 6 6 0 -6
BITMAP
10
18
0C
04
FC
78
ENDCHAR
STARTCHAR 00BB
ENCODING 187
SWIDTH 540 0
DWIDTH 15 0
BBX 12 13 2 2
BITMAP
C600
E700
7380
31C0
18C0
1C60
0E70
1C60
18C0
31C0
7380
E300
C600
ENDCHAR
STARTCHAR 00BF
ENCODING 191
SWIDTH 396 0
DWIDTH 11 0
BBX 9 20 1 -3
BITMAP
0E00
1E00
1E00
0E00
0000
0000
0000
0E00
0E00
0C00
1C00
1800
3800
7000
6000
E000
E180
7380
7F00
3E00
ENDCHAR
STARTCHAR 00C0
ENCODING 192
SWIDTH 540 0
DWIDTH 15 0
BBX 14 25 1 0
BITMAP
1C00
0C00
0600
0200
0000
0F00
3FC0
3FE0
70E0
6070
E070
E070
E070
E070
E070
E070
E070
E070
E070
E070
E070
E070
E070
FFFC
FFFC
ENDCHAR
STARTCHAR 00C1
ENCODING 193
SWIDTH 540 0
DWIDTH 15 0
BBX 14 25 1 0
BITMAP
0180
0300
0300
0600
0000
0F00
3FC0
3FE0
70E0
6070
E070
E070
E070
E070
E070
E070
E070
E070
E070
E070
E070
E070
E070
FFFC
FFFC
ENDCHAR
STARTCHAR 00C2
ENCODING 194
SWIDTH 540 0
DWIDTH 15 0
BBX 14 25 1 0
BITMAP
0700
0F80
1980
38C0
0000
0F00
3FC0
3FE0
70E0
6070
E070
E070
E070
E070
E070
E070
E070
E070
E070
E070
E070
E070
E070
FFFC
FFFC
ENDCHAR
STARTCHAR 00C3
ENCODING 195
SWIDTH 540 0
DWIDTH 15 0
BBX 14 25 1 0
BITMAP
0800
1F80
0380
0000
0000
0F00
3FC0
3FE0
70E0
6070
E070
E070
E070
E070
E070
E070
E070
E070
E070
E070
E070
E070
E070
FFFC
FFFC
ENDCHAR
STARTCHAR 00C4
ENCODING 196
SWIDTH 540 0
DWIDTH 15 0
BBX 14 25 1 0
BITMAP
30E0
78E0
79F0
38E0
0000
0F00
3FC0
3FE0
70E0
6070
E070
E070
E070
E070
E070
E070
E070
E070
E070
E070
E070
E070
E070
FFFC
FFFC
ENDCHAR
STARTCHAR 00C5
ENCODING 197
SWIDTH 540 0
DWIDTH 15 0
BBX 14 27 1 0
BITMAP
0600
0F80
1880
1880
0F80
0700
0000
0F00
3FC0
3FE0
70E0
6070
E070
E070
E070
E070
E070
E070
E070
E070
E070
E070
E070
E070
E070
FFFC
FFFC
ENDCHAR
STARTCHAR 00C7
ENCODING 199
SWIDTH 684 0
DWIDTH 19 0
BBX 18 26 1 -6
BITMAP
01F800
07FE00
1FFF80
3E03C0
380180
700000
600000
E00000
E00000
E00000
E00000
E00000
E00000
E00000
700000
780000
3C0380
1F0780
0FFF00
03FC00
004000
006000
003000
001000
03F000
01E000
ENDCHAR
STARTCHAR 00C8
ENCODING 200
SWIDTH 468 0
DWIDTH 13 0
BBX 13 25 1 0
BITMAP
1800
1800
0C00
0600
0000
0000
3F80
3F80
3000
3000
3000
3000
3000
3000
FFE0
FFE0
3000
3000
3000
3000
3000
3000
3000
3FF8
3FF8
ENDCHAR
STARTCHAR 00C9
ENCODING 201
SWIDTH 468 0
DWIDTH 13 0
BBX 13 25 1 0
BITMAP
0300
0300
0600
0C00
0000
0000
3F80
3F80
3000
3000
3000
3000
3000
3000
FFE0
FFE0
3000
3000
3000
3000
3000
3000
3000
3FF8
3FF8
ENDCHAR
STARTCHAR 00CA
ENCODING 202
SWIDTH 468 0
DWIDTH 13 0
BBX 13 25 1 0
BITMAP
0E00
1B00
3B80
3180
0000
0000
3F80
3F80
3000
3000
3000
3000
3000
3000
FFE0
FFE0
3000
3000
3000
3000
3000
3000
3000
3FF8
3FF8
ENDCHAR
STARTCHAR 00CB
ENCODING 203
SWIDTH 468 0
DWIDTH 13 0
BBX 13 25 1 0
BITMAP
70C0
71E0
79E0
71C0
0000
0000
3F80
3F80
3000
3000
3000
3000
3000
3000
FFE0
FFE0
3000
3000
3000
3000
3000
3000
3000
3FF8
3FF8
ENDCHAR
STARTCHAR 00CC
ENCODING 204
SWIDTH 180 0
DWIDTH 5 0
BBX 4 17 0 0
BITMAP
C0
60
30
00
00
70
70
70
70
70
70
70
70
70
70
70
70
ENDCHAR
STARTCHAR 00CD
ENCODING 205
SWIDTH 180 0
DWIDTH 5 0
BBX 4 17 1 0
BITMAP
30
30
60
00
00
E0
E0
E0
E0
E0
E0
E0
E0
E0
E0
E0
E0
ENDCHAR
STARTCHAR 00CE
ENCODING 206
SWIDTH 180 0
DWIDTH 5 0
BBX 8 17 -1 0
BITMAP
3C
6E
E6
01
00
38
38
38
38
38
38
38
38
38
38
38
38
ENDCHAR
STARTCHAR 00CF
ENCODING 207
SWIDTH 180 0
DWIDTH 5 0
BBX 10 17 -2 0
BITMAP
F3C0
F3C0
F3C0
6180
0000
1C00
1C00
1C00
1C00
1C00
1C00
1C00
1C00
1C00
1C00
1C00
1C00
ENDCHAR
STARTCHAR 00D1
ENCODING 209
SWIDTH 504 0
DWIDTH 14 0
BBX 12 25 1 0
BITMAP
0800
1F80
0380
0000
0000
4000
E070
F070
7870
7E70
6F70
67F0
63F0
60F0
6070
6070
6070
6070
6070
6070
6070
6070
6070
6070
6070
ENDCHAR
STARTCHAR 00D2
ENCODING 210
SWIDTH 792 0
DWIDTH 22 0
BBX 21 25 1 0
BITMAP
01C000
00C000
006000
002000
000000
01F800
07FF00
1FFF80
3E03C0
3800E0
700070
700070
E00030
E00038
E00038
E00038
E00038
E00038
E00070
700070
7000E0
3C01E0
1F07C0
0FFF80
03FE00
ENDCHAR
STARTCHAR 00D3
ENCODING 211
SWIDTH 792 0
DWIDTH 22 0
BBX 21 25 1 0
BITMAP
001800
003000
003000
006000
000000
01F800
07FF00
1FFF80
3E03C0
3800E0
700070
700070
E00030
E00038
E00038
E00038
E00038
E00038
E00070
700070
7000E0
3C01E0
1F07C0
0FFF80
03FE00
ENDCHAR
STARTCHAR 00D4
ENCODING 212
SWIDTH 792 0
DWIDTH 22 0
BBX 21 25 1 0
BITMAP
007000
00F800
019C00
038C00
000000
01F800
07FF00
1FFF80
3E03C0
3800E0
700070
700070
E00030
E00038
E00038
E00038
E00038
E00038
E00070
700070
7000E0
3C01E0
1F07C0
0FFF80
03FE00
ENDCHAR
STARTCHAR 00D5
ENCODING 213
SWIDTH 792 0
DWIDTH 22 0
BBX 21 25 1 0
BITMAP
008000
01F800
003800
000000
000000
01F800
07FF00
1FFF80
3E03C0
3800E0
700070
700070
E00030
E00038
E00038
E00038
E00038
E00038
E00070
700070
7000E0
3C01E0
1F07C0
0FFF80
03FE00
ENDCHAR
STARTCHAR 00D6
ENCODING 214
SWIDTH 792 0
DWIDTH 22 0
BBX 21 25 1 0
BITMAP
038E00
078E00
078F00
038E00
000000
01F800
07FF00
1FFF80
3E03C0
3800E0
700070
700070
E00030
E00038
E00038
E00038
E00038
E00038
E00070
700070
7000E0
3C01E0
1F07C0
0FFF80
03FE00
ENDCHAR
STARTCHAR 00D7
ENCODING 215
SWIDTH 504 0
DWIDTH 14 0
BBX 12 11 1 4
BITMAP
6020
F070
78E0
3DC0
1F80
0F00
0F80
1DC0
39E0
70F0
6060
ENDCHAR
STARTCHAR 00D8
ENCODING 216
SWIDTH 792 0
DWIDTH 22 0
BBX 20 21 1 -1
BITMAP
01F860
07FEE0
1FFFC0
3C03C0
7803E0
7006E0
E00C70
E01C70
C03830
C07030
C0E030
C0C030
E18070
E30070
770070
7E00E0
3C01C0
3E0780
7FFF00
63FC00
400000
ENDCHAR
STARTCHAR 00D9
ENCODING 217
SWIDTH 504 0
DWIDTH 14 0
BBX 12 25 1 0
BITMAP
1800
0C00
0600
0600
0000
0000
E070
E070
E070
E070
E070
E070
E070
E070
E070
E070
E070
E070
E070
E070
E070
6070
70E0
3FC0
1F80
ENDCHAR
STARTCHAR 00DA
ENCODING 218
SWIDTH 504 0
DWIDTH 14 0
BBX 12 25 1 0
BITMAP
0180
0300
0200
0600
0000
0000
E070
E070
E070
E070
E070
E070
E070
E070
E070
E070
E070
E070
E070
E070
E070
6070
70E0
3FC0
1F80
ENDCHAR
STARTCHAR 00DB
ENCODING 219
SWIDTH 504 0
DWIDTH 14 0
BBX 12 25 1 0
BITMAP
0F00
0F00
1980
30C0
0000
0000
E070
E070
E070
E070
E070
E070
E070
E070
E070
E070
E070
E070
E070
E070
E070
6070
70E0
3FC0
1F80
ENDCHAR
STARTCHAR 00DC
ENCODING 220
SWIDTH 504 0
DWIDTH 14 0
BBX 12 25 1 0
BITMAP
30C0
79E0
79E0
38E0
0000
0000
E070
E070
E070
E070
E070
E070
E070
E070
E070
E070
E070
E070
E070
E070
E070
6070
70E0
3FC0
1F80
ENDCHAR
STARTCHAR 00DD
ENCODING 221
SWIDTH 468 0
DWIDTH 13 0
BBX 12 25 1 0
BITMAP
0180
0300
0600
0600
0000
0000
E070
E070
E070
E070
E070
E070
E070
E070
E070
E070
E060
70E0
3FC0
1F80
0600
0600
0600
0600
0600
ENDCHAR
STARTCHAR 00E0
ENCODING 224
SWIDTH 540 0
DWIDTH 15 0
BBX 14 25 1 0
BITMAP
1C00
0C00
0600
0200
0000
0F00
3FC0
3FE0
70E0
6070
E070
E070
E070
E070
E070
E070
E070
E070
E070
E070
E070
E070
E070
FFFC
FFFC
ENDCHAR
STARTCHAR 00E1
ENCODING 225
SWIDTH 540 0
DWIDTH 15 0
BBX 14 25 1 0
BITMAP
0180
0300
0300
0600
0000
0F00
3FC0
3FE0
70E0
6070
E070
E070
E070
E070
E070
E070
E070
E070
E070
E070
E070
E070
E070
FFFC
FFFC
ENDCHAR
STARTCHAR 00E2
ENCODING 226
SWIDTH 540 0
DWIDTH 15 0
BBX 14 25 1 0
BITMAP
0700
0F80
1980
38C0
0000
0F00
3FC0
3FE0
70E0
6070
E070
E070
E070
E070
E070
E070
E070
E070
E070
E070
E070
E070
E070
FFFC
FFFC
ENDCHAR
STARTCHAR 00E3
ENCODING 227
SWIDTH 540 0
DWIDTH 15 0
BBX 14 25 1 0
BITMAP
0800
1F80
0380
0000
0000
0F00
3FC0
3FE0
70E0
6070
E070
E070
E070
E070
E070
E070
E070
E070
E070
E070
E070
E070
E070
FFFC
FFFC
ENDCHAR
STARTCHAR 00E4
ENCODING 228
SWIDTH 540 0
DWIDTH 15 0
BBX 14 25 1 0
BITMAP
30E0
78E0
79F0
38E0
0000
0F00
3FC0
3FE0
70E0
6070
E070
E070
E070
E070
E070
E070
E070
E070
E070
E070
E070
E070
E070
FFFC
FFFC
ENDCHAR
STARTCHAR 00E5
ENCODING 229
SWIDTH 540 0
DWIDTH 15 0
BBX 14 27 1 0
BITMAP
0600
0F80
1880
1880
0F80
0700
0000
0F00
3FC0
3FE0
70E0
6070
E070
E070
E070
E070
E070
E070
E070
E070
E070
E070
E070
E070
E070
FFFC
FFFC
ENDCHAR
STARTCHAR 00E7
ENCODING 231
SWIDTH 684 0
DWIDTH 19 0
BBX 18 26 1 -6
BITMAP
01F800
07FE00
1FFF80
3E03C0
380180
700000
600000
E00000
E00000
E00000
E00000
E00000
E00000
E00000
700000
780000
3C0380
1F0780
0FFF00
03FC00
004000
006000
003000
001000
03F000
01E000
ENDCHAR
STARTCHAR 00E8
ENCODING 232
SWIDTH 468 0
DWIDTH 13 0
BBX 13 25 1 0
BITMAP
1800
1800
0C00
0600
0000
0000
3F80
3F80
3000
3000
3000
3000
3000
3000
FFE0
FFE0
3000
3000
3000
3000
3000
3000
3000
3FF8
3FF8
ENDCHAR
STARTCHAR 00E9
ENCODING 233
SWIDTH 468 0
DWIDTH 13 0
BBX 13 25 1 0
BITMAP
0300
0300
0600
0C00
0000
0000
3F80
3F80
3000
3000
3000
3000
3000
3000
FFE0
FFE0
3000
3000
3000
3000
3000
3000
3000
3FF8
3FF8
ENDCHAR
STARTCHAR 00EA
ENCODING 234
SWIDTH 468 0
DWIDTH 13 0
BBX 13 25 1 0
BITMAP
0E00
1B00
3B80
3180
0000
0000
3F80
3F80
3000
3000
3000
3000
3000
3000
FFE0
FFE0
3000
3000
3000
3000
3000
3000
3000
3FF8
3FF8
ENDCHAR
STARTCHAR 00EB
ENCODING 235
SWIDTH 468 0
DWIDTH 13 0
BBX 13 25 1 0
BITMAP
70C0
71E0
79E0
71C0
0000
0000
3F80
3F80
3000
3000
3000
3000
3000
3000
FFE0
FFE0
3000
3000
3000
3000
3000
3000
3000
3FF8
3FF8
ENDCHAR
STARTCHAR 00EC
ENCODING 236
SWIDTH 180 0
DWIDTH 5 0
BBX 4 17 0 0
BITMAP
C0
60
30
00
00
70
70
70
70
70
70
70
70
70
70
70
70
ENDCHAR
STARTCHAR 00ED
ENCODING 237
SWIDTH 180 0
DWIDTH 5 0
BBX 4 17 1 0
BITMAP
30
30
60
00
00
E0
E0
E0
E0
E0
E0
E0
E0
E0
E0
E0
E0
ENDCHAR
STARTCHAR 00EE
ENCODING 238
SWIDTH 180 0
DWIDTH 5 0
BBX 8 17 -1 0
BITMAP
3C
6E
E6
01
00
38
38
38
38
38
38
38
38
38
38
38
38
ENDCHAR
STARTCHAR 00EF
ENCODING 239
SWIDTH 180 0
DWIDTH 5 0
BBX 10 17 -2 0
BITMAP
F3C0
F3C0
F3C0
6180
0000
1C00
1C00
1C00
1C00
1C00
1C00
1C00
1C00
1C00
1C00
1C00
1C00
ENDCHAR
STARTCHAR 00F1
ENCODING 241
SWIDTH 504 0
DWIDTH 14 0
BBX 12 25 1 0
BITMAP
0800
1F80
0380
0000
0000
4000
E070
F070
7870
7E70
6F70
67F0
63F0
60F0
6070
6070
6070
6070
6070
6070
6070
6070
6070
6070
6070
ENDCHAR
STARTCHAR 00F2
ENCODING 242
SWIDTH 792 0
DWIDTH 22 0
BBX 21 25 1 0
BITMAP
01C000
00C000
006000
002000
000000
01F800
07FF00
1FFF80
3E03C0
3800E0
700070
700070
E00030
E00038
E00038
E00038
E00038
E00038
E00070
700070
7000E0
3C01E0
1F07C0
0FFF80
03FE00
ENDCHAR
STARTCHAR 00F3
ENCODING 243
SWIDTH 792 0
DWIDTH 22 0
BBX 21 25 1 0
BITMAP
001800
003000
003000
006000
000000
01F800
07FF00
1FFF80
3E03C0
3800E0
700070
700070
E00030
E00038
E00038
E00038
E00038
E00038
E00070
700070
7000E0
3C01E0
1F07C0
0FFF80
03FE00
ENDCHAR
STARTCHAR 00F4
ENCODING 244
SWIDTH 792 0
DWIDTH 22 0
BBX 21 25 1 0
BITMAP
007000
00F800
019C00
038C00
000000
01F800
07FF00
1FFF80
3E03C0
3800E0
700070
700070
E00030
E00038
E00038
E00038
E00038
E00038
E00070
700070
7000E0
3C01E0
1F07C0
0FFF80
03FE00
ENDCHAR
STARTCHAR 00F5
ENCODING 245
SWIDTH 792 0
DWIDTH 22 0
BBX 21 25 1 0
BITMAP
008000
01F800
003800
000000
000000
01F800
07FF00
1FFF80
3E03C0
3800E0
700070
700070
E00030
E00038
E00038
E00038
E00038
E00038
E00070
700070
7000E0
3C01E0
1F07C0
0FFF80
03FE00
ENDCHAR
STARTCHAR 00F6
ENCODING 246
SWIDTH 792 0
DWIDTH 22 0
BBX 21 25 1 0
BITMAP
038E00
078E00
078F00
038E00
000000
01F800
07FF00
1FFF80
3E03C0
3800E0
700070
700070
E00030
E00038
E00038
E00038
E00038
E00038
E00070
700070
7000E0
3C01E0
1F07C0
0FFF80
03FE00
ENDCHAR
STARTCHAR 00F7
ENCODING 247
SWIDTH 540 0
DWIDTH 15 0
BBX 13 12 1 3
BITMAP
0700
0780
0700
0000
0000
FFF8
FFF8
0000
0000
0700
0780
0700
ENDCHAR
STARTCHAR 00F8
ENCODING 248
SWIDTH 792 0
DWIDTH 22 0
BBX 20 21 1 -1
BITMAP
01F860
07FEE0
1FFFC0
3C03C0
7803E0
7006E0
E00C70
E01C70
C03830
C07030
C0E030
C0C030
E18070
E30070
770070
7E00E0
3C01C0
3E0780
7FFF00
63FC00
400000
ENDCHAR
STARTCHAR 00F9
ENCODING 249
SWIDTH 504 0
DWIDTH 14 0
BBX 12 25 1 0
BITMAP
1800
0C00
0600
0600
0000
0000
E070
E070
E070
E070
E070
E070
E070
E070
E070
E070
E070
E070
E070
E070
E070
6070
70E0
3FC0
1F80
ENDCHAR
STARTCHAR 00FA
ENCODING 250
SWIDTH 504 0
DWIDTH 14 0
BBX 12 25 1 0
BITMAP
0180
0300
0200
0600
0000
0000
E070
E070
E070
E070
E070
E070
E070
E070
E070
E070
E070
E070
E070
E070
E070
6070
70E0
3FC0
1F80
ENDCHAR
STARTCHAR 00FB
ENCODING 251
SWIDTH 504 0
DWIDTH 14 0
BBX 12 25 1 0
BITMAP
0F00
0F00
1980
30C0
0000
0000
E070
E070
E070
E070
E070
E070
E070
E070
E070
E070
E070
E070
E070
E070
E070
6070
70E0
3FC0
1F80
ENDCHAR
STARTCHAR 00FC
ENCODING 252
SWIDTH 504 0
DWIDTH 14 0
BBX 12 25 1 0
BITMAP
30C0
79E0
79E0
38E0
0000
0000
E070
E070
E070
E070
E070
E070
E070
E070
E070
E070
E070
E070
E070
E070
E070
6070
70E0
3FC0
1F80
ENDCHAR
STARTCHAR 00FD
ENCODING 253
SWIDTH 468 0
DWIDTH 13 0
BBX 12 25 1 0
BITMAP
0180
0300
0600
0600
0000
0000
E070
E070
E070
E070
E070
E070
E070
E070
E070
E070
E060
70E0
3FC0
1F80
0600
0600
0600
0600
0600
ENDCHAR
STARTCHAR 00FF
ENCODING 255
SWIDTH 468 0
DWIDTH 13 0
BBX 12 25 1 0
BITMAP
30C0
79E0
79E0
78E0
0000
0000
E070
E070
E070
E070
E070
E070
E070
E070
E070
E070
E060
70E0
3FC0
1F80
0600
0600
0600
0600
0600
ENDCHAR
STARTCHAR 0100
ENCODING 256
SWIDTH 540 0
DWIDTH 15 0
BBX 14 24 1 0
BITMAP
3FC0
3FC0
0000
0000
0F00
3FC0
3FE0
70E0
6070
E070
E070
E070
E070
E070
E070
E070
E070
E070
E070
E070
E070
E070
FFFC
FFFC
ENDCHAR
STARTCHAR 0101
ENCODING 257
SWIDTH 540 0
DWIDTH 15 0
BBX 14 24 1 0
BITMAP
3FC0
3FC0
0000
0000
0F00
3FC0
3FE0
70E0
6070
E070
E070
E070
E070
E070
E070
E070
E070
E070
E070
E070
E070
E070
FFFC
FFFC
ENDCHAR
STARTCHAR 0102
ENCODING 258
SWIDTH 540 0
DWIDTH 15 0
BBX 14 25 1 0
BITMAP
30C0
18C0
1F80
0700
0000
0F00
3FC0
3FE0
70E0
6070
E070
E070
E070
E070
E070
E070
E070
E070
E070
E070
E070
E070
E070
FFFC
FFFC
ENDCHAR
STARTCHAR 0103
ENCODING 259
SWIDTH 540 0
DWIDTH 15 0
BBX 14 25 1 0
BITMAP
30C0
18C0
1F80
0700
0000
0F00
3FC0
3FE0
70E0
6070
E070
E070
E070
E070
E070
E070
E070
E070
E070
E070
E070
E070
E070
FFFC
FFFC
ENDCHAR
STARTCHAR 0104
ENCODING 260
SWIDTH 540 0
DWIDTH 15 0
BBX 15 25 1 -5
BITMAP
0F00
3FC0
3FE0
70E0
6070
E070
E070
E070
E070
E070
E070
E070
E070
E070
E070
E070
E070
E070
FFFC
FFFC
0018
0030
0020
0036
001C
ENDCHAR
STARTCHAR 0105
ENCODING 261
SWIDTH 540 0
DWIDTH 15 0
BBX 15 25 1 -5
BITMAP
0F00
3FC0
3FE0
70E0
6070
E070
E070
E070
E070
E070
E070
E070
E070
E070
E070
E070
E070
E070
FFFC
FFFC
0018
0030
0020
0036
001C
ENDCHAR
STARTCHAR 0106
ENCODING 262
SWIDTH 684 0
DWIDTH 19 0
BBX 18 25 1 0
BITMAP
001800
003000
002000
006000
000000
01F800
07FE00
1FFF80
3E03C0
380180
700000
600000
E00000
E00000
E00000
E00000
E00000
E00000
E00000
700000
780000
3C0380
1F0780
0FFF00
03FC00
ENDCHAR
STARTCHAR 0107
ENCODING 263
SWIDTH 684 0
DWIDTH 19 0
BBX 18 25 1 0
BITMAP
001800
003000
002000
006000
000000
01F800
07FE00
1FFF80
3E03C0
380180
700000
600000
E00000
E00000
E00000
E00000
E00000
E00000
E00000
700000
780000
3C0380
1F0780
0FFF00
03FC00
ENDCHAR
STARTCHAR 010A
ENCODING 266
SWIDTH 684 0
DWIDTH 19 0
BBX 18 25 1 0
BITMAP
00F000
00F000
00F000
002000
000000
01F800
07FE00
1FFF80
3E03C0
380180
700000
600000
E00000
E00000
E00000
E00000
E00000
E00000
E00000
700000
780000
3C0380
1F0780
0FFF00
03FC00
ENDCHAR
STARTCHAR 010B
ENCODING 267
SWIDTH 684 0
DWIDTH 19 0
BBX 18 25 1 0
BITMAP
00F000
00F000
00F000
002000
000000
01F800
07FE00
1FFF80
3E03C0
380180
700000
600000
E00000
E00000
E00000
E00000
E00000
E00000
E00000
700000
780000
3C0380
1F0780
0FFF00
03FC00
ENDCHAR
STARTCHAR 010C
ENCODING 268
SWIDTH 684 0
DWIDTH 19 0
BBX 18 25 1 0
BITMAP
038C00
019800
00F000
007000
000000
01F800
07FE00
1FFF80
3E03C0
380180
700000
600000
E00000
E00000
E00000
E00000
E00000
E00000
E00000
700000
780000
3C0380
1F0780
0FFF00
03FC00
ENDCHAR
STARTCHAR 010D
ENCODING 269
SWIDTH 684 0
DWIDTH 19 0
BBX 18 25 1 0
BITMAP
038C00
019800
00F000
007000
000000
01F800
07FE00
1FFF80
3E03C0
380180
700000
600000
E00000
E00000
E00000
E00000
E00000
E00000
E00000
700000
780000
3C0380
1F0780
0FFF00
03FC00
ENDCHAR
STARTCHAR 010E
ENCODING 270
SWIDTH 648 0
DWIDTH 18 0
BBX 16 25 1 0
BITMAP
18C0
0DC0
0F80
0700
0000
0000
FFE0
FFF0
E07C
E01C
E00E
E006
E007
E007
E007
E007
E007
E007
E007
E00E
E00E
E03C
E3F8
FFF0
FFC0
ENDCHAR
STARTCHAR 010F
ENCODING 271
SWIDTH 648 0
DWIDTH 18 0
BBX 16 25 1 0
BITMAP
18C0
0DC0
0F80
0700
0000
0000
FFE0
FFF0
E07C
E01C
E00E
E006
E007
E007
E007
E007
E007
E007
E007
E00E
E00E
E03C
E3F8
FFF0
FFC0
ENDCHAR
STARTCHAR 0110
ENCODING 272
SWIDTH 684 0
DWIDTH 19 0
BBX 17 19 1 0
BITMAP
7FF000
7FF800
703E00
700E00
700700
700300
700380
700380
FF8380
FF8380
700380
700380
700380
700700
700700
701E00
71FC00
7FF800
7FE000
ENDCHAR
STARTCHAR 0111
ENCODING 273
SWIDTH 684 0
DWIDTH 19 0
BBX 17 19 1 0
BITMAP
7FF000
7FF800
703E00
700E00
700700
700300
700380
700380
FF8380
FF8380
700380
700380
700380
700700
700700
701E00
71FC00
7FF800
7FE000
ENDCHAR
STARTCHAR 0112
ENCODING 274
SWIDTH 468 0
DWIDTH 13 0
BBX 13 24 1 0
BITMAP
3F80
3F80
0000
0000
0000
3F80
3F80
3000
3000
3000
3000
3000
3000
FFE0
FFE0
3000
3000
3000
3000
3000
3000
3000
3FF8
3FF8
ENDCHAR
STARTCHAR 0113
ENCODING 275
SWIDTH 468 0
DWIDTH 13 0
BBX 13 24 1 0
BITMAP
3F80
3F80
0000
0000
0000
3F80
3F80
3000
3000
3000
3000
3000
3000
FFE0
FFE0
3000
3000
3000
3000
3000
3000
3000
3FF8
3FF8
ENDCHAR
STARTCHAR 0116
ENCODING 278
SWIDTH 468 0
DWIDTH 13 0
BBX 13 25 1 0
BITMAP
0E00
0F00
0E00
0400
0000
0000
3F80
3F80
3000
3000
3000
3000
3000
3000
FFE0
FFE0
3000
3000
3000
3000
3000
3000
3000
3FF8
3FF8
ENDCHAR
STARTCHAR 0117
ENCODING 279
SWIDTH 468 0
DWIDTH 13 0
BBX 13 25 1 0
BITMAP
0E00
0F00
0E00
0400
0000
0000
3F80
3F80
3000
3000
3000
3000
3000
3000
FFE0
FFE0
3000
3000
3000
3000
3000
3000
3000
3FF8
3FF8
ENDCHAR
STARTCHAR 0118
ENCODING 280
SWIDTH 468 0
DWIDTH 13 0
BBX 13 24 1 -5
BITMAP
3F80
3F80
3000
3000
3000
3000
3000
3000
FFE0
FFE0
3000
3000
3000
3000
3000
3000
3000
3FF8
3FF8
0060
0040
00C0
00C8
0078
ENDCHAR
STARTCHAR 0119
ENCODING 281
SWIDTH 468 0
DWIDTH 13 0
BBX 13 24 1 -5
BITMAP
3F80
3F80
3000
3000
3000
3000
3000
3000
FFE0
FFE0
3000
3000
3000
3000
3000
3000
3000
3FF8
3FF8
0060
0040
00C0
00C8
0078
ENDCHAR
STARTCHAR 011A
ENCODING 282
SWIDTH 468 0
DWIDTH 13 0
BBX 13 25 1 0
BITMAP
3180
3B80
1F00
0E00
0000
0000
3F80
3F80
3000
3000
3000
3000
3000
3000
FFE0
FFE0
3000
3000
3000
3000
3000
3000
3000
3FF8
3FF8
ENDCHAR
STARTCHAR 011B
ENCODING 283
SWIDTH 468 0
DWIDTH 13 0
BBX 13 25 1 0
BITMAP
3180
3B80
1F00
0E00
0000
0000
3F80
3F80
3000
3000
3000
3000
3000
3000
FFE0
FFE0
3000
3000
3000
3000
3000
3000
3000
3FF8
3FF8
ENDCHAR
STARTCHAR 011E
ENCODING 286
SWIDTH 828 0
DWIDTH 23 0
BBX 22 25 1 0
BITMAP
030C00
018C00
01F800
00F000
000000
01F800
07FE00
1FFF80
3E03C0
380180
700000
700000
E00000
E00000
E03FFC
E03FFC
E00070
E00070
E00070
7000E0
7000E0
3C01C0
1F0780
0FFF00
03FE00
ENDCHAR
STARTCHAR 011F
ENCODING 287
SWIDTH 828 0
DWIDTH 23 0
BBX 22 25 1 0
BITMAP
030C00
018C00
01F800
00F000
000000
01F800
07FE00
1FFF80
3E03C0
380180
700000
700000
E00000
E00000
E03FFC
E03FFC
E00070
E00070
E00070
7000E0
7000E0
3C01C0
1F0780
0FFF00
03FE00
ENDCHAR
STARTCHAR 0120
ENCODING 288
SWIDTH 828 0
DWIDTH 23 0
BBX 22 25 1 0
BITMAP
00F000
00F000
00F000
002000
000000
01F800
07FE00
1FFF80
3E03C0
380180
700000
700000
E00000
E00000
E03FFC
E03FFC
E00070
E00070
E00070
7000E0
7000E0
3C01C0
1F0780
0FFF00
03FE00
ENDCHAR
STARTCHAR 0121
ENCODING 289
SWIDTH 828 0
DWIDTH 23 0
BBX 22 25 1 0
BITMAP
00F000
00F000
00F000
002000
000000
01F800
07FE00
1FFF80
3E03C0
380180
700000
700000
E00000
E00000
E03FFC
E03FFC
E00070
E00070
E00070
7000E0
7000E0
3C01C0
1F0780
0FFF00
03FE00
ENDCHAR
STARTCHAR 0124
ENCODING 292
SWIDTH 540 0
DWIDTH 15 0
BBX 13 25 1 0
BITMAP
0380
07C0
0CC0
1C60
0000
0000
3038
3038
3038
3038
3038
3038
3038
FFF8
FFF8
FFF8
3038
3038
3038
3038
3038
3038
3038
3038
3038
ENDCHAR
STARTCHAR 0125
ENCODING 293
SWIDTH 540 0
DWIDTH 15 0
BBX 13 25 1 0
BITMAP
0380
07C0
0CC0
1C60
0000
0000
3038
3038
3038
3038
3038
3038
3038
FFF8
FFF8
FFF8
3038
3038
3038
3038
3038
3038
3038
3038
3038
ENDCHAR
STARTCHAR 0128
ENCODING 296
SWIDTH 180 0
DWIDTH 5 0
BBX 7 17 -1 0
BITMAP
F6
FE
00
00
00
38
38
38
38
38
38
38
38
38
38
38
38
ENDCHAR
STARTCHAR 0129
ENCODING 297
SWIDTH 180 0
DWIDTH 5 0
BBX 7 17 -1 0
BITMAP
F6
FE
00
00
00
38
38
38
38
38
38
38
38
38
38
38
38
ENDCHAR
STARTCHAR 012A
ENCODING 298
SWIDTH 180 0
DWIDTH 5 0
BBX 8 16 -1 0
BITMAP
FF
FF
00
00
38
38
38
38
38
38
38
38
38
38
38
38
ENDCHAR
STARTCHAR 012B
ENCODING 299
SWIDTH 180 0
DWIDTH 5 0
BBX 8 16 -1 0
BITMAP
FF
FF
00
00
38
38
38
38
38
38
38
38
38
38
38
38
ENDCHAR
STARTCHAR 012E
ENCODING 302
SWIDTH 180 0
DWIDTH 5 0
BBX 6 27 0 -5
BITMAP
20
20
30
FC
70
50
88
00
00
00
70
70
70
70
70
70
70
70
70
70
70
70
60
80
80
D8
F0
ENDCHAR
STARTCHAR 012F
ENCODING 303
SWIDTH 180 0
DWIDTH 5 0
BBX 6 27 0 -5
BITMAP
20
20
30
FC
70
50
88
00
00
00
70
70
70
70
70
70
70
70
70
70
70
70
60
80
80
D8
F0
ENDCHAR
STARTCHAR 0130
ENCODING 304
SWIDTH 180 0
DWIDTH 5 0
BBX 4 18 1 0
BITMAP
60
F0
F0
E0
00
00
E0
E0
E0
E0
E0
E0
E0
E0
E0
E0
E0
E0
ENDCHAR
STARTCHAR 0139
ENCODING 313
SWIDTH 432 0
DWIDTH 12 0
BBX 11 25 1 0
BITMAP
3800
3000
6000
4000
0000
0000
E000
E000
E000
E000
E000
E000
E000
E000
E000
E000
E000
E000
E000
E000
E000
E000
E000
FFE0
FFE0
ENDCHAR
STARTCHAR 013A
ENCODING 314
SWIDTH 432 0
DWIDTH 12 0
BBX 11 25 1 0
BITMAP
3800
3000
6000
4000
0000
0000
E000
E000
E000
E000
E000
E000
E000
E000
E000
E000
E000
E000
E000
E000
E000
E000
E000
FFE0
FFE0
ENDCHAR
STARTCHAR 013D
ENCODING 317
SWIDTH 432 0
DWIDTH 12 0
BBX 13 25 -1 0
BITMAP
C700
6600
3C00
3800
0000
0000
3800
3800
3800
3800
3800
3800
3800
3800
3800
3800
3800
3800
3800
3800
3800
3800
3800
3FF8
3FF8
ENDCHAR
STARTCHAR 013E
ENCODING 318
SWIDTH 432 0
DWIDTH 12 0
BBX 13 25 -1 0
BITMAP
C700
6600
3C00
3800
0000
0000
3800
3800
3800
3800
3800
3800
3800
3800
3800
3800
3800
3800
3800
3800
3800
3800
3800
3FF8
3FF8
ENDCHAR
STARTCHAR 0141
ENCODING 321
SWIDTH 468 0
DWIDTH 13 0
BBX 13 19 0 0
BITMAP
1C00
1C00
1C00
1C00
1C00
1C00
1C80
1F80
1E00
3C00
FC00
5C00
1C00
1C00
1C00
1C00
1C00
1FF8
1FF8
ENDCHAR
STARTCHAR 0142
ENCODING 322
SWIDTH 468 0
DWIDTH 13 0
BBX 13 19 0 0
BITMAP
1C00
1C00
1C00
1C00
1C00
1C00
1C80
1F80
1E00
3C00
FC00
5C00
1C00
1C00
1C00
1C00
1C00
1FF8
1FF8
ENDCHAR
STARTCHAR 0143
ENCODING 323
SWIDTH 504 0
DWIDTH 14 0
BBX 12 25 1 0
BITMAP
0180
0300
0300
0600
0000
4000
E070
F070
7870
7E70
6F70
67F0
63F0
60F0
6070
6070
6070
6070
6070
6070
6070
6070
6070
6070
6070
ENDCHAR
STARTCHAR 0144
ENCODING 324
SWIDTH 504 0
DWIDTH 14 0
BBX 12 25 1 0
BITMAP
0180
0300
0300
0600
0000
4000
E070
F070
7870
7E70
6F70
67F0
63F0
60F0
6070
6070
6070
6070
6070
6070
6070
6070
6070
6070
6070
ENDCHAR
STARTCHAR 0147
ENCODING 327
SWIDTH 504 0
DWIDTH 14 0
BBX 12 25 1 0
BITMAP
38C0
1D80
0F80
0700
0000
4000
E070
F070
7870
7E70
6F70
67F0
63F0
60F0
6070
6070
6070
6070
6070
6070
6070
6070
6070
6070
6070
ENDCHAR
STARTCHAR 0148
ENCODING 328
SWIDTH 504 0
DWIDTH 14 0
BBX 12 25 1 0
BITMAP
38C0
1D80
0F80
0700
0000
4000
E070
F070
7870
7E70
6F70
67F0
63F0
60F0
6070
6070
6070
6070
6070
6070
6070
6070
6070
6070
6070
ENDCHAR
STARTCHAR 014C
ENCODING 332
SWIDTH 792 0
DWIDTH 22 0
BBX 21 24 1 0
BITMAP
03FC00
03FC00
000000
000000
01F800
07FF00
1FFF80
3E03C0
3800E0
700070
700070
E00030
E00038
E00038
E00038
E00038
E00038
E00070
700070
7000E0
3C01E0
1F07C0
0FFF80
03FE00
ENDCHAR
STARTCHAR 014D
ENCODING 333
SWIDTH 792 0
DWIDTH 22 0
BBX 21 24 1 0
BITMAP
03FC00
03FC00
000000
000000
01F800
07FF00
1FFF80
3E03C0
3800E0
700070
700070
E00030
E00038
E00038
E00038
E00038
E00038
E00070
700070
7000E0
3C01E0
1F07C0
0FFF80
03FE00
ENDCHAR
STARTCHAR 0150
ENCODING 336
SWIDTH 792 0
DWIDTH 22 0
BBX 21 25 1 0
BITMAP
006700
00C600
008C00
018800
000000
01F800
07FF00
1FFF80
3E03C0
3800E0
700070
700070
E00030
E00038
E00038
E00038
E00038
E00038
E00070
700070
7000E0
3C01E0
1F07C0
0FFF80
03FE00
ENDCHAR
STARTCHAR 0151
ENCODING 337
SWIDTH 792 0
DWIDTH 22 0
BBX 21 25 1 0
BITMAP
006700
00C600
008C00
018800
000000
01F800
07FF00
1FFF80
3E03C0
3800E0
700070
700070
E00030
E00038
E00038
E00038
E00038
E00038
E00070
700070
7000E0
3C01E0
1F07C0
0FFF80
03FE00
ENDCHAR
STARTCHAR 0154
ENCODING 340
SWIDTH 576 0
DWIDTH 16 0
BBX 14 25 1 0
BITMAP
00C0
0180
0300
0300
0000
0000
3FF0
3FF8
303C
301C
300C
300C
300C
301C
3038
FFF8
FFE0
30F0
3038
3038
3018
301C
301C
301C
301C
ENDCHAR
STARTCHAR 0155
ENCODING 341
SWIDTH 576 0
DWIDTH 16 0
BBX 14 25 1 0
BITMAP
00C0
0180
0300
0300
0000
0000
3FF0
3FF8
303C
301C
300C
300C
300C
301C
3038
FFF8
FFE0
30F0
3038
3038
3018
301C
301C
301C
301C
ENDCHAR
STARTCHAR 0158
ENCODING 344
SWIDTH 576 0
DWIDTH 16 0
BBX 14 25 1 0
BITMAP
1860
0CC0
0780
0300
0000
0000
3FF0
3FF8
303C
301C
300C
300C
300C
301C
3038
FFF8
FFE0
30F0
3038
3038
3018
301C
301C
301C
301C
ENDCHAR
STARTCHAR 0159
ENCODING 345
SWIDTH 576 0
DWIDTH 16 0
BBX 14 25 1 0
BITMAP
1860
0CC0
0780
0300
0000
0000
3FF0
3FF8
303C
301C
300C
300C
300C
301C
3038
FFF8
FFE0
30F0
3038
3038
3018
301C
301C
301C
301C
ENDCHAR
STARTCHAR 015A
ENCODING 346
SWIDTH 468 0
DWIDTH 13 0
BBX 12 25 1 0
BITMAP
0380
0300
0600
0400
0000
0F00
3FC0
7FE0
70E0
6060
6040
7000
7800
3E00
1F00
07C0
01E0
00E0
0070
0070
E070
E070
70E0
7FE0
1FC0
ENDCHAR
STARTCHAR 015B
ENCODING 347
SWIDTH 468 0
DWIDTH 13 0
BBX 12 25 1 0
BITMAP
0380
0300
0600
0400
0000
0F00
3FC0
7FE0
70E0
6060
6040
7000
7800
3E00
1F00
07C0
01E0
00E0
0070
0070
E070
E070
70E0
7FE0
1FC0
ENDCHAR
STARTCHAR 015E
ENCODING 350
SWIDTH 468 0
DWIDTH 13 0
BBX 12 26 1 -6
BITMAP
0F00
3FC0
7FE0
70E0
6060
6040
7000
7800
3E00
1F00
07C0
01E0
00E0
0070
0070
E070
E070
70E0
7FE0
1FC0
0600
0600
0100
1100
1B00
0E00
ENDCHAR
STARTCHAR 015F
ENCODING 351
SWIDTH 468 0
DWIDTH 13 0
BBX 12 26 1 -6
BITMAP
0F00
3FC0
7FE0
70E0
6060
6040
7000
7800
3E00
1F00
07C0
01E0
00E0
0070
0070
E070
E070
70E0
7FE0
1FC0
0600
0600
0100
1100
1B00
0E00
ENDCHAR
STARTCHAR 0160
ENCODING 352
SWIDTH 468 0
DWIDTH 13 0
BBX 12 25 1 0
BITMAP
31C0
1980
0F00
0E00
0000
0F00
3FC0
7FE0
70E0
6060
6040
7000
7800
3E00
1F00
07C0
01E0
00E0
0070
0070
E070
E070
70E0
7FE0
1FC0
ENDCHAR
STARTCHAR 0161
ENCODING 353
SWIDTH 468 0
DWIDTH 13 0
BBX 12 25 1 0
BITMAP
31C0
1980
0F00
0E00
0000
0F00
3FC0
7FE0
70E0
6060
6040
7000
7800
3E00
1F00
07C0
01E0
00E0
0070
0070
E070
E070
70E0
7FE0
1FC0
ENDCHAR
STARTCHAR 0162
ENCODING 354
SWIDTH 468 0
DWIDTH 13 0
BBX 12 25 1 -6
BITMAP
FFF0
FFF0
0600
0600
0600
0600
0600
0600
0600
0600
0600
0600
0600
0600
0600
0600
0600
0600
0600
0600
0600
0100
1100
3B00
0E00
ENDCHAR
STARTCHAR 0163
ENCODING 355
SWIDTH 468 0
DWIDTH 13 0
BBX 12 25 1 -6
BITMAP
FFF0
FFF0
0600
0600
0600
0600
0600
0600
0600
0600
0600
0600
0600
0600
0600
0600
0600
0600
0600
0600
0600
0100
1100
3B00
0E00
ENDCHAR
STARTCHAR 0164
ENCODING 356
SWIDTH 468 0
DWIDTH 13 0
BBX 12 25 1 0
BITMAP
30C0
1980
0F00
0600
0000
0000
FFF0
FFF0
0600
0600
0600
0600
0600
0600
0600
0600
0600
0600
0600
0600
0600
0600
0600
0600
0600
ENDCHAR
STARTCHAR 0165
ENCODING 357
SWIDTH 468 0
DWIDTH 13 0
BBX 12 25 1 0
BITMAP
30C0
1980
0F00
0600
0000
0000
FFF0
FFF0
0600
0600
0600
0600
0600
0600
0600
0600
0600
0600
0600
0600
0600
0600
0600
0600
0600
ENDCHAR
STARTCHAR 0168
ENCODING 360
SWIDTH 504 0
DWIDTH 14 0
BBX 12 25 1 0
BITMAP
1000
3F80
0380
0000
0000
0000
E070
E070
E070
E070
E070
E070
E070
E070
E070
E070
E070
E070
E070
E070
E070
6070
70E0
3FC0
1F80
ENDCHAR
STARTCHAR 0169
ENCODING 361
SWIDTH 504 0
DWIDTH 14 0
BBX 12 25 1 0
BITMAP
1000
3F80
0380
0000
0000
0000
E070
E070
E070
E070
E070
E070
E070
E070
E070
E070
E070
E070
E070
E070
E070
6070
70E0
3FC0
1F80
ENDCHAR
STARTCHAR 016A
ENCODING 362
SWIDTH 504 0
DWIDTH 14 0
BBX 12 24 1 0
BITMAP
3FC0
3FC0
0000
0000
0000
E070
E070
E070
E070
E070
E070
E070
E070
E070
E070
E070
E070
E070
E070
E070
6070
70E0
3FC0
1F80
ENDCHAR
STARTCHAR 016B
ENCODING 363
SWIDTH 504 0
DWIDTH 14 0
BBX 12 24 1 0
BITMAP
3FC0
3FC0
0000
0000
0000
E070
E070
E070
E070
E070
E070
E070
E070
E070
E070
E070
E070
E070
E070
E070
6070
70E0
3FC0
1F80
ENDCHAR
STARTCHAR 016E
ENCODING 366
SWIDTH 504 0
DWIDTH 14 0
BBX 12 27 1 0
BITMAP
0600
0F00
1980
1980
0F80
0700
0000
0000
E070
E070
E070
E070
E070
E070
E070
E070
E070
E070
E070
E070
E070
E070
E070
6070
70E0
3FC0
1F80
ENDCHAR
STARTCHAR 016F
ENCODING 367
SWIDTH 504 0
DWIDTH 14 0
BBX 12 27 1 0
BITMAP
0600
0F00
1980
1980
0F80
0700
0000
0000
E070
E070
E070
E070
E070
E070
E070
E070
E070
E070
E070
E070
E070
E070
E070
6070
70E0
3FC0
1F80
ENDCHAR
STARTCHAR 0170
ENCODING 368
SWIDTH 504 0
DWIDTH 14 0
BBX 12 25 1 0
BITMAP
0E60
0C60
18C0
1180
0000
0000
E070
E070
E070
E070
E070
E070
E070
E070
E070
E070
E070
E070
E070
E070
E070
6070
70E0
3FC0
1F80
ENDCHAR
STARTCHAR 0171
ENCODING 369
SWIDTH 504 0
DWIDTH 14 0
BBX 12 25 1 0
BITMAP
0E60
0C60
18C0
1180
0000
0000
E070
E070
E070
E070
E070
E070
E070
E070
E070
E070
E070
E070
E070
E070
E070
6070
70E0
3FC0
1F80
ENDCHAR
STARTCHAR 0172
ENCODING 370
SWIDTH 504 0
DWIDTH 14 0
BBX 12 24 1 -5
BITMAP
E070
E070
E070
E070
E070
E070
E070
E070
E070
E070
E070
E070
E070
E070
E070
6070
70E0
3FC0
1F80
0600
0800
0800
0980
0F80
ENDCHAR
STARTCHAR 0173
ENCODING 371
SWIDTH 504 0
DWIDTH 14 0
BBX 12 24 1 -5
BITMAP
E070
E070
E070
E070
E070
E070
E070
E070
E070
E070
E070
E070
E070
E070
E070
6070
70E0
3FC0
1F80
0600
0800
0800
0980
0F80
ENDCHAR
STARTCHAR 0176
ENCODING 374
SWIDTH 468 0
DWIDTH 13 0
BBX 12 25 1 0
BITMAP
0F00
0F00
1980
30C0
0000
0000
E070
E070
E070
E070
E070
E070
E070
E070
E070
E070
E060
70E0
3FC0
1F80
0600
0600
0600
0600
0600
ENDCHAR
STARTCHAR 0177
ENCODING 375
SWIDTH 468 0
DWIDTH 13 0
BBX 12 25 1 0
BITMAP
0F00
0F00
1980
30C0
0000
0000
E070
E070
E070
E070
E070
E070
E070
E070
E070
E070
E060
70E0
3FC0
1F80
0600
0600
0600
0600
0600
ENDCHAR
STARTCHAR 0178
ENCODING 376
SWIDTH 468 0
DWIDTH 13 0
BBX 12 25 1 0
BITMAP
30C0
79E0
79E0
78E0
0000
0000
E070
E070
E070
E070
E070
E070
E070
E070
E070
E070
E060
70E0
3FC0
1F80
0600
0600
0600
0600
0600
ENDCHAR
STARTCHAR 0179
ENCODING 377
SWIDTH 504 0
DWIDTH 14 0
BBX 12 25 1 0
BITMAP
0180
0300
0200
0600
0000
0000
FFF0
FFF0
0060
00E0
01C0
01C0
0380
0300
0700
0E00
0E00
1C00
1C00
3800
7000
7000
E000
FFF0
FFF0
ENDCHAR
STARTCHAR 017A
ENCODING 378
SWIDTH 504 0
DWIDTH 14 0
BBX 12 25 1 0
BITMAP
0180
0300
0200
0600
0000
0000
FFF0
FFF0
0060
00E0
01C0
01C0
0380
0300
0700
0E00
0E00
1C00
1C00
3800
7000
7000
E000
FFF0
FFF0
ENDCHAR
STARTCHAR 017B
ENCODING 379
SWIDTH 504 0
DWIDTH 14 0
BBX 12 25 1 0
BITMAP
0F00
0F00
0F00
0200
0000
0000
FFF0
FFF0
0060
00E0
01C0
01C0
0380
0300
0700
0E00
0E00
1C00
1C00
3800
7000
7000
E000
FFF0
FFF0
ENDCHAR
STARTCHAR 017C
ENCODING 380
SWIDTH 504 0
DWIDTH 14 0
BBX 12 25 1 0
BITMAP
0F00
0F00
0F00
0200
0000
0000
FFF0
FFF0
0060
00E0
01C0
01C0
0380
0300
0700
0E00
0E00
1C00
1C00
3800
7000
7000
E000
FFF0
FFF0
ENDCHAR
STARTCHAR 017D
ENCODING 381
SWIDTH 504 0
DWIDTH 14 0
BBX 12 25 1 0
BITMAP
38C0
1980
0F00
0700
0000
0000
FFF0
FFF0
0060
00E0
01C0
01C0
0380
0300
0700
0E00
0E00
1C00
1C00
3800
7000
7000
E000
FFF0
FFF0
ENDCHAR
STARTCHAR 017E
ENCODING 382
SWIDTH 504 0
DWIDTH 14 0
BBX 12 25 1 0
BITMAP
38C0
1980
0F00
0700
0000
0000
FFF0
FFF0
0060
00E0
01C0
01C0
0380
0300
0700
0E00
0E00
1C00
1C00
3800
7000
7000
E000
FFF0
FFF0
ENDCHAR
STARTCHAR 01A0
ENCODING 416
SWIDTH 792 0
DWIDTH 22 0
BBX 21 22 1 0
BITMAP
000060
0000C0
01F8C0
07FF80
1FFF80
3E03C0
3800E0
700070
700070
E00030
E00038
E00038
E00038
E00038
E00038
E00070
700070
7000E0
3C01E0
1F07C0
0FFF80
03FE00
ENDCHAR
STARTCHAR 01A1
ENCODING 417
SWIDTH 792 0
DWIDTH 22 0
BBX 21 22 1 0
BITMAP
000060
0000C0
01F8C0
07FF80
1FFF80
3E03C0
3800E0
700070
700070
E00030
E00038
E00038
E00038
E00038
E00038
E00070
700070
7000E0
3C01E0
1F07C0
0FFF80
03FE00
ENDCHAR
STARTCHAR 01AF
ENCODING 431
SWIDTH 504 0
DWIDTH 14 0
BBX 14 22 1 0
BITMAP
000C
000C
0018
E070
E070
E070
E070
E070
E070
E070
E070
E070
E070
E070
E070
E070
E070
E070
6070
70E0
3FC0
1F80
ENDCHAR
STARTCHAR 01B0
ENCODING 432
SWIDTH 504 0
DWIDTH 14 0
BBX 14 22 1 0
BITMAP
000C
000C
0018
E070
E070
E070
E070
E070
E070
E070
E070
E070
E070
E070
E070
E070
E070
E070
6070
70E0
3FC0
1F80
ENDCHAR
STARTCHAR 01CD
ENCODING 461
SWIDTH 540 0
DWIDTH 15 0
BBX 14 25 1 0
BITMAP
38C0
1D80
0F80
0700
0000
0F00
3FC0
3FE0
70E0
6070
E070
E070
E070
E070
E070
E070
E070
E070
E070
E070
E070
E070
E070
FFFC
FFFC
ENDCHAR
STARTCHAR 01CE
ENCODING 462
SWIDTH 540 0
DWIDTH 15 0
BBX 14 25 1 0
BITMAP
38C0
1D80
0F80
0700
0000
0F00
3FC0
3FE0
70E0
6070
E070
E070
E070
E070
E070
E070
E070
E070
E070
E070
E070
E070
E070
FFFC
FFFC
ENDCHAR
STARTCHAR 01CF
ENCODING 463
SWIDTH 180 0
DWIDTH 5 0
BBX 8 18 -1 0
BITMAP
C3
E6
7C
3C
00
00
38
38
38
38
38
38
38
38
38
38
38
38
ENDCHAR
STARTCHAR 01D0
ENCODING 464
SWIDTH 180 0
DWIDTH 5 0
BBX 8 18 -1 0
BITMAP
C3
E6
7C
3C
00
00
38
38
38
38
38
38
38
38
38
38
38
38
ENDCHAR
STARTCHAR 01D1
ENCODING 465
SWIDTH 792 0
DWIDTH 22 0
BBX 21 25 1 0
BITMAP
018C00
01D800
00F800
007000
000000
01F800
07FF00
1FFF80
3E03C0
3800E0
700070
700070
E00030
E00038
E00038
E00038
E00038
E00038
E00070
700070
7000E0
3C01E0
1F07C0
0FFF80
03FE00
ENDCHAR
STARTCHAR 01D2
ENCODING 466
SWIDTH 792 0
DWIDTH 22 0
BBX 21 25 1 0
BITMAP
018C00
01D800
00F800
007000
000000
01F800
07FF00
1FFF80
3E03C0
3800E0
700070
700070
E00030
E00038
E00038
E00038
E00038
E00038
E00070
700070
7000E0
3C01E0
1F07C0
0FFF80
03FE00
ENDCHAR
STARTCHAR 01D3
ENCODING 467
SWIDTH 504 0
DWIDTH 14 0
BBX 12 25 1 0
BITMAP
38C0
1980
0F00
0700
0000
0000
E070
E070
E070
E070
E070
E070
E070
E070
E070
E070
E070
E070
E070
E070
E070
6070
70E0
3FC0
1F80
ENDCHAR
STARTCHAR 01D4
ENCODING 468
SWIDTH 504 0
DWIDTH 14 0
BBX 12 25 1 0
BITMAP
38C0
1980
0F00
0700
0000
0000
E070
E070
E070
E070
E070
E070
E070
E070
E070
E070
E070
E070
E070
E070
E070
6070
70E0
3FC0
1F80
ENDCHAR
STARTCHAR 02C6
ENCODING 710
SWIDTH 288 0
DWIDTH 8 0
BBX 8 4 0 21
BITMAP
1C
3E
66
E3
ENDCHAR
STARTCHAR 02C7
ENCODING 711
SWIDTH 288 0
DWIDTH 8 0
BBX 8 4 0 21
BITMAP
E3
76
3C
1C
ENDCHAR
STARTCHAR 02D8
ENCODING 728
SWIDTH 252 0
DWIDTH 7 0
BBX 8 4 0 21
BITMAP
C3
C6
7E
38
ENDCHAR
STARTCHAR 02D9
ENCODING 729
SWIDTH 144 0
DWIDTH 4 0
BBX 4 4 0 22
BITMAP
60
F0
F0
F0
ENDCHAR
STARTCHAR 02DA
ENCODING 730
SWIDTH 180 0
DWIDTH 5 0
BBX 6 6 0 21
BITMAP
30
78
CC
8C
F8
70
ENDCHAR
STARTCHAR 02DB
ENCODING 731
SWIDTH 180 0
DWIDTH 5 0
BBX 5 5 0 -5
BITMAP
70
C0
80
C8
78
ENDCHAR
STARTCHAR 02DC
ENCODING 732
SWIDTH 216 0
DWIDTH 6 0
BBX 7 2 0 23
BITMAP
FE
1C
ENDCHAR
STARTCHAR 02DD
ENCODING 733
SWIDTH 324 0
DWIDTH 9 0
BBX 9 4 0 21
BITMAP
3180
6300
6200
C600
ENDCHAR
STARTCHAR 0300
ENCODING 768
SWIDTH 0 0
DWIDTH 0 0
BBX 4 4 -4 21
BITMAP
C0
60
60
30
ENDCHAR
STARTCHAR 0301
ENCODING 769
SWIDTH 0 0
DWIDTH 0 0
BBX 4 4 -4 21
BITMAP
30
60
40
C0
ENDCHAR
STARTCHAR 0302
ENCODING 770
SWIDTH 0 0
DWIDTH 0 0
BBX 8 4 -8 21
BITMAP
38
7C
66
C7
ENDCHAR
STARTCHAR 0303
ENCODING 771
SWIDTH 0 0
DWIDTH 0 0
BBX 7 3 -7 22
BITMAP
40
FE
0E
ENDCHAR
STARTCHAR 0304
ENCODING 772
SWIDTH 0 0
DWIDTH 0 0
BBX 8 2 -8 22
BITMAP
FF
FF
ENDCHAR
STARTCHAR 0306
ENCODING 774
SWIDTH 0 0
DWIDTH 0 0
BBX 8 4 -8 21
BITMAP
C3
63
7E
3C
ENDCHAR
STARTCHAR 0307
ENCODING 775
SWIDTH 0 0
DWIDTH 0 0
BBX 4 4 -4 22
BITMAP
60
F0
F0
F0
ENDCHAR
STARTCHAR 0308
ENCODING 776
SWIDTH 0 0
DWIDTH 0 0
BBX 10 4 -10 21
BITMAP
6180
F3C0
F3C0
F1C0
ENDCHAR
STARTCHAR 0309
ENCODING 777
SWIDTH 0 0
DWIDTH 0 0
BBX 2 5 -2 21
BITMAP
C0
C0
80
80
C0
ENDCHAR
STARTCHAR 030A
ENCODING 778
SWIDTH 0 0
DWIDTH 0 0
BBX 6 6 -6 21
BITMAP
30
78
CC
C4
7C
38
ENDCHAR
STARTCHAR 030B
ENCODING 779
SWIDTH 0 0
DWIDTH 0 0
BBX 9 4 -9 21
BITMAP
3180
6300
6200
C600
ENDCHAR
STARTCHAR 030C
ENCODING 780
SWIDTH 0 0
DWIDTH 0 0
BBX 8 4 -8 21
BITMAP
C7
66
3C
38
ENDCHAR
STARTCHAR 031B
ENCODING 795
SWIDTH 0 0
DWIDTH 0 0
BBX 3 4 -3 18
BITMAP
60
60
C0
80
ENDCHAR
STARTCHAR 0323
ENCODING 803
SWIDTH 0 0
DWIDTH 0 0
BBX 4 4 -4 -7
BITMAP
40
F0
F0
F0
ENDCHAR
STARTCHAR 0326
ENCODING 806
SWIDTH 0 0
DWIDTH 0 0
BBX 4 4 -4 -6
BITMAP
70
60
60
C0
ENDCHAR
STARTCHAR 0327
ENCODING 807
SWIDTH 0 0
DWIDTH 0 0
BBX 6 6 -6 -6
BITMAP
10
18
0C
04
FC
78
ENDCHAR
STARTCHAR 0328
ENCODING 808
SWIDTH 0 0
DWIDTH 0 0
BBX 5 5 -5 -5
BITMAP
60
80
80
D8
F0
ENDCHAR
STARTCHAR 0335
ENCODING 821
SWIDTH 0 0
DWIDTH 0 0
BBX 9 2 -9 5
BITMAP
FF80
FF80
ENDCHAR
STARTCHAR 1EA0
ENCODING 7840
SWIDTH 540 0
DWIDTH 15 0
BBX 14 27 1 -7
BITMAP
0F00
3FC0
3FE0
70E0
6070
E070
E070
E070
E070
E070
E070
E070
E070
E070
E070
E070
E070
E070
FFFC
FFFC
0000
0000
0000
0200
0F00
0F00
0700
ENDCHAR
STARTCHAR 1EA1
ENCODING 7841
SWIDTH 540 0
DWIDTH 15 0
BBX 14 27 1 -7
BITMAP
0F00
3FC0
3FE0
70E0
6070
E070
E070
E070
E070
E070
E070
E070
E070
E070
E070
E070
E070
E070
FFFC
FFFC
0000
0000
0000
0200
0F00
0F00
0700
ENDCHAR
STARTCHAR 1EA2
ENCODING 7842
SWIDTH 540 0
DWIDTH 15 0
BBX 14 26 1 0
BITMAP
0200
0200
0600
0600
0600
0000
0F00
3FC0
3FE0
70E0
6070
E070
E070
E070
E070
E070
E070
E070
E070
E070
E070
E070
E070
E070
FFFC
FFFC
ENDCHAR
STARTCHAR 1EA3
ENCODING 7843
SWIDTH 540 0
DWIDTH 15 0
BBX 14 26 1 0
BITMAP
0200
0200
0600
0600
0600
0000
0F00
3FC0
3FE0
70E0
6070
E070
E070
E070
E070
E070
E070
E070
E070
E070
E070
E070
E070
E070
FFFC
FFFC
ENDCHAR
STARTCHAR 1EA4
ENCODING 7844
SWIDTH 540 0
DWIDTH 15 0
BBX 14 27 1 0
BITMAP
0018
0018
0730
0F80
1980
38C0
0000
0F00
3FC0
3FE0
70E0
6070
E070
E070
E070
E070
E070
E070
E070
E070
E070
E070
E070
E070
E070
FFFC
FFFC
ENDCHAR
STARTCHAR 1EA5
ENCODING 7845
SWIDTH 540 0
DWIDTH 15 0
BBX 14 27 1 0
BITMAP
0018
0018
0730
0F80
1980
38C0
0000
0F00
3FC0
3FE0
70E0
6070
E070
E070
E070
E070
E070
E070
E070
E070
E070
E070
E070
E070
E070
FFFC
FFFC
ENDCHAR
STARTCHAR 1EA6
ENCODING 7846
SWIDTH 540 0
DWIDTH 15 0
BBX 16 27 -1 0
BITMAP
E000
6000
31C0
03E0
0660
0E30
0000
03C0
0FF0
0FF8
1C38
181C
381C
381C
381C
381C
381C
381C
381C
381C
381C
381C
381C
381C
381C
3FFF
3FFF
ENDCHAR
STARTCHAR 1EA7
ENCODING 7847
SWIDTH 540 0
DWIDTH 15 0
BBX 16 27 -1 0
BITMAP
E000
6000
31C0
03E0
0660
0E30
0000
03C0
0FF0
0FF8
1C38
181C
381C
381C
381C
381C
381C
381C
381C
381C
381C
381C
381C
381C
381C
3FFF
3FFF
ENDCHAR
STARTCHAR 1EA8
ENCODING 7848
SWIDTH 540 0
DWIDTH 15 0
BBX 14 29 1 0
BITMAP
0030
0030
0030
0020
0720
0FB0
1980
38C0
0000
0F00
3FC0
3FE0
70E0
6070
E070
E070
E070
E070
E070
E070
E070
E070
E070
E070
E070
E070
E070
FFFC
FFFC
ENDCHAR
STARTCHAR 1EA9
ENCODING 7849
SWIDTH 540 0
DWIDTH 15 0
BBX 14 29 1 0
BITMAP
0030
0030
0030
0020
0720
0FB0
1980
38C0
0000
0F00
3FC0
3FE0
70E0
6070
E070
E070
E070
E070
E070
E070
E070
E070
E070
E070
E070
E070
E070
FFFC
FFFC
ENDCHAR
STARTCHAR 1EAA
ENCODING 7850
SWIDTH 540 0
DWIDTH 15 0
BBX 14 28 1 0
BITMAP
0180
03F8
0020
0700
0F80
1980
38C0
0000
0F00
3FC0
3FE0
70E0
6070
E070
E070
E070
E070
E070
E070
E070
E070
E070
E070
E070
E070
E070
FFFC
FFFC
ENDCHAR
STARTCHAR 1EAB
ENCODING 7851
SWIDTH 540 0
DWIDTH 15 0
BBX 14 28 1 0
BITMAP
0180
03F8
0020
0700
0F80
1980
38C0
0000
0F00
3FC0
3FE0
70E0
6070
E070
E070
E070
E070
E070
E070
E070
E070
E070
E070
E070
E070
E070
FFFC
FFFC
ENDCHAR
STARTCHAR 1EAC
ENCODING 7852
SWIDTH 540 0
DWIDTH 15 0
BBX 14 32 1 -7
BITMAP
0700
0F80
1980
38C0
0000
0F00
3FC0
3FE0
70E0
6070
E070
E070
E070
E070
E070
E070
E070
E070
E070
E070
E070
E070
E070
FFFC
FFFC
0000
0000
0000
0200
0F00
0F00
0700
ENDCHAR
STARTCHAR 1EAD
ENCODING 7853
SWIDTH 540 0
DWIDTH 15 0
BBX 14 32 1 -7
BITMAP
0700
0F80
1980
38C0
0000
0F00
3FC0
3FE0
70E0
6070
E070
E070
E070
E070
E070
E070
E070
E070
E070
E070
E070
E070
E070
FFFC
FFFC
0000
0000
0000
0200
0F00
0F00
0700
ENDCHAR
STARTCHAR 1EAE
ENCODING 7854
SWIDTH 540 0
DWIDTH 15 0
BBX 14 28 1 0
BITMAP
0180
0300
0300
30C0
18C0
1F80
0700
0000
0F00
3FC0
3FE0
70E0
6070
E070
E070
E070
E070
E070
E070
E070
E070
E070
E070
E070
E070
E070
FFFC
FFFC
ENDCHAR
STARTCHAR 1EAF
ENCODING 7855
SWIDTH 540 0
DWIDTH 15 0
BBX 14 28 1 0
BITMAP
0180
0300
0300
30C0
18C0
1F80
0700
0000
0F00
3FC0
3FE0
70E0
6070
E070
E070
E070
E070
E070
E070
E070
E070
E070
E070
E070
E070
E070
FFFC
FFFC
ENDCHAR
STARTCHAR 1EB0
ENCODING 7856
SWIDTH 540 0
DWIDTH 15 0
BBX 14 28 1 0
BITMAP
1800
0C00
0C00
30C0
18C0
1F80
0700
0000
0F00
3FC0
3FE0
70E0
6070
E070
E070
E070
E070
E070
E070
E070
E070
E070
E070
E070
E070
E070
FFFC
FFFC
ENDCHAR
STARTCHAR 1EB1
ENCODING 7857
SWIDTH 540 0
DWIDTH 15 0
BBX 14 28 1 0
BITMAP
1800
0C00
0C00
30C0
18C0
1F80
0700
0000
0F00
3FC0
3FE0
70E0
6070
E070
E070
E070
E070
E070
E070
E070
E070
E070
E070
E070
E070
E070
FFFC
FFFC
ENDCHAR
STARTCHAR 1EB2
ENCODING 7858
SWIDTH 540 0
DWIDTH 15 0
BBX 14 29 1 0
BITMAP
0300
0300
0200
0600
36C0
18C0
1F80
0700
0000
0F00
3FC0
3FE0
70E0
6070
E070
E070
E070
E070
E070
E070
E070
E070
E070
E070
E070
E070
E070
FFFC
FFFC
ENDCHAR
STARTCHAR 1EB3
ENCODING 7859
SWIDTH 540 0
DWIDTH 15 0
BBX 14 29 1 0
BITMAP
0300
0300
0200
0600
36C0
18C0
1F80
0700
0000
0F00
3FC0
3FE0
70E0
6070
E070
E070
E070
E070
E070
E070
E070
E070
E070
E070
E070
E070
E070
FFFC
FFFC
ENDCHAR
STARTCHAR 1EB4
ENCODING 7860
SWIDTH 540 0
DWIDTH 15 0
BBX 14 28 1 0
BITMAP
1E40
1FC0
0000
30C0
18C0
1F80
0700
0000
0F00
3FC0
3FE0
70E0
6070
E070
E070
E070
E070
E070
E070
E070
E070
E070
E070
E070
E070
E070
FFFC
FFFC
ENDCHAR
STARTCHAR 1EB5
ENCODING 7861
SWIDTH 540 0
DWIDTH 15 0
BBX 14 28 1 0
BITMAP
1E40
1FC0
0000
30C0
18C0
1F80
0700
0000
0F00
3FC0
3FE0
70E0
6070
E070
E070
E070
E070
E070
E070
E070
E070
E070
E070
E070
E070
E070
FFFC
FFFC
ENDCHAR
STARTCHAR 1EB6
ENCODING 7862
SWIDTH 540 0
DWIDTH 15 0
BBX 14 32 1 -7
BITMAP
30C0
18C0
1F80
0700
0000
0F00
3FC0
3FE0
70E0
6070
E070
E070
E070
E070
E070
E070
E070
E070
E070
E070
E070
E070
E070
FFFC
FFFC
0000
0000
0000
0200
0F00
0F00
0700
ENDCHAR
STARTCHAR 1EB7
ENCODING 7863
SWIDTH 540 0
DWIDTH 15 0
BBX 14 32 1 -7
BITMAP
30C0
18C0
1F80
0700
0000
0F00
3FC0
3FE0
70E0
6070
E070
E070
E070
E070
E070
E070
E070
E070
E070
E070
E070
E070
E070
FFFC
FFFC
0000
0000
0000
0200
0F00
0F00
0700
ENDCHAR
STARTCHAR 1EB8
ENCODING 7864
SWIDTH 468 0
DWIDTH 13 0
BBX 13 26 1 -7
BITMAP
3F80
3F80
3000
3000
3000
3000
3000
3000
FFE0
FFE0
3000
3000
3000
3000
3000
3000
3000
3FF8
3FF8
0000
0000
0000
0100
0380
0780
0380
ENDCHAR
STARTCHAR 1EB9
ENCODING 7865
SWIDTH 468 0
DWIDTH 13 0
BBX 13 26 1 -7
BITMAP
3F80
3F80
3000
3000
3000
3000
3000
3000
FFE0
FFE0
3000
3000
3000
3000
3000
3000
3000
3FF8
3FF8
0000
0000
0000
0100
0380
0780
0380
ENDCHAR
STARTCHAR 1EBA
ENCODING 7866
SWIDTH 468 0
DWIDTH 13 0
BBX 13 26 1 0
BITMAP
0600
0600
0C00
0C00
0C00
0000
0000
3F80
3F80
3000
3000
3000
3000
3000
3000
FFE0
FFE0
3000
3000
3000
3000
3000
3000
3000
3FF8
3FF8
ENDCHAR
STARTCHAR 1EBB
ENCODING 7867
SWIDTH 468 0
DWIDTH 13 0
BBX 13 26 1 0
BITMAP
0600
0600
0C00
0C00
0C00
0000
0000
3F80
3F80
3000
3000
3000
3000
3000
3000
FFE0
FFE0
3000
3000
3000
3000
3000
3000
3000
3FF8
3FF8
ENDCHAR
STARTCHAR 1EBC
ENCODING 7868
SWIDTH 468 0
DWIDTH 13 0
BBX 13 25 1 0
BITMAP
1000
3F00
0700
0000
0000
0000
3F80
3F80
3000
3000
3000
3000
3000
3000
FFE0
FFE0
3000
3000
3000
3000
3000
3000
3000
3FF8
3FF8
ENDCHAR
STARTCHAR 1EBD
ENCODING 7869
SWIDTH 468 0
DWIDTH 13 0
BBX 13 25 1 0
BITMAP
1000
3F00
0700
0000
0000
0000
3F80
3F80
3000
3000
3000
3000
3000
3000
FFE0
FFE0
3000
3000
3000
3000
3000
3000
3000
3FF8
3FF8
ENDCHAR
STARTCHAR 1EBE
ENCODING 7870
SWIDTH 468 0
DWIDTH 13 0
BBX 13 27 1 0
BITMAP
0018
0030
0E60
1B00
3B80
3180
0000
0000
3F80
3F80
3000
3000
3000
3000
3000
3000
FFE0
FFE0
3000
3000
3000
3000
3000
3000
3000
3FF8
3FF8
ENDCHAR
STARTCHAR 1EBF
ENCODING 7871
SWIDTH 468 0
DWIDTH 13 0
BBX 13 27 1 0
BITMAP
0018
0030
0E60
1B00
3B80
3180
0000
0000
3F80
3F80
3000
3000
3000
3000
3000
3000
FFE0
FFE0
3000
3000
3000
3000
3000
3000
3000
3FF8
3FF8
ENDCHAR
STARTCHAR 1EC0
ENCODING 7872
SWIDTH 468 0
DWIDTH 13 0
BBX 15 27 -1 0
BITMAP
C000
4000
6380
06C0
0EE0
0C60
0000
0000
0FE0
0FE0
0C00
0C00
0C00
0C00
0C00
0C00
3FF8
3FF8
0C00
0C00
0C00
0C00
0C00
0C00
0C00
0FFE
0FFE
ENDCHAR
STARTCHAR 1EC1
ENCODING 7873
SWIDTH 468 0
DWIDTH 13 0
BBX 15 27 -1 0
BITMAP
C000
4000
6380
06C0
0EE0
0C60
0000
0000
0FE0
0FE0
0C00
0C00
0C00
0C00
0C00
0C00
3FF8
3FF8
0C00
0C00
0C00
0C00
0C00
0C00
0C00
0FFE
0FFE
ENDCHAR
STARTCHAR 1EC2
ENCODING 7874
SWIDTH 468 0
DWIDTH 13 0
BBX 13 29 1 0
BITMAP
0060
0060
0060
0060
0E40
1B60
3B80
3180
0000
0000
3F80
3F80
3000
3000
3000
3000
3000
3000
FFE0
FFE0
3000
3000
3000
3000
3000
3000
3000
3FF8
3FF8
ENDCHAR
STARTCHAR 1EC3
ENCODING 7875
SWIDTH 468 0
DWIDTH 13 0
BBX 13 29 1 0
BITMAP
0060
0060
0060
0060
0E40
1B60
3B80
3180
0000
0000
3F80
3F80
3000
3000
3000
3000
3000
3000
FFE0
FFE0
3000
3000
3000
3000
3000
3000
3000
3FF8
3FF8
ENDCHAR
STARTCHAR 1EC4
ENCODING 7876
SWIDTH 468 0
DWIDTH 13 0
BBX 13 28 1 0
BITMAP
0300
07F0
0020
0E00
1B00
3B80
3180
0000
0000
3F80
3F80
3000
3000
3000
3000
3000
3000
FFE0
FFE0
3000
3000
3000
3000
3000
3000
3000
3FF8
3FF8
ENDCHAR
STARTCHAR 1EC5
ENCODING 7877
SWIDTH 468 0
DWIDTH 13 0
BBX 13 28 1 0
BITMAP
0300
07F0
0020
0E00
1B00
3B80
3180
0000
0000
3F80
3F80
3000
3000
3000
3000
3000
3000
FFE0
FFE0
3000
3000
3000
3000
3000
3000
3000
3FF8
3FF8
ENDCHAR
STARTCHAR 1EC6
ENCODING 7878
SWIDTH 468 0
DWIDTH 13 0
BBX 13 32 1 -7
BITMAP
0E00
1B00
3B80
3180
0000
0000
3F80
3F80
3000
3000
3000
3000
3000
3000
FFE0
FFE0
3000
3000
3000
3000
3000
3000
3000
3FF8
3FF8
0000
0000
0000
0100
0380
0780
0380
ENDCHAR
STARTCHAR 1EC7
ENCODING 7879
SWIDTH 468 0
DWIDTH 13 0
BBX 13 32 1 -7
BITMAP
0E00
1B00
3B80
3180
0000
0000
3F80
3F80
3000
3000
3000
3000
3000
3000
FFE0
FFE0
3000
3000
3000
3000
3000
3000
3000
3FF8
3FF8
0000
0000
0000
0100
0380
0780
0380
ENDCHAR
STARTCHAR 1EC8
ENCODING 7880
SWIDTH 180 0
DWIDTH 5 0
BBX 3 19 1 0
BITMAP
60
60
60
40
40
00
00
E0
E0
E0
E0
E0
E0
E0
E0
E0
E0
E0
E0
ENDCHAR
STARTCHAR 1EC9
ENCODING 7881
SWIDTH 180 0
DWIDTH 5 0
BBX 3 19 1 0
BITMAP
60
60
60
40
40
00
00
E0
E0
E0
E0
E0
E0
E0
E0
E0
E0
E0
E0
ENDCHAR
STARTCHAR 1ECA
ENCODING 7882
SWIDTH 180 0
DWIDTH 5 0
BBX 6 29 0 -7
BITMAP
20
20
30
FC
70
50
88
00
00
00
70
70
70
70
70
70
70
70
70
70
70
70
00
00
00
20
70
78
70
ENDCHAR
STARTCHAR 1ECB
ENCODING 7883
SWIDTH 180 0
DWIDTH 5 0
BBX 6 29 0 -7
BITMAP
20
20
30
FC
70
50
88
00
00
00
70
70
70
70
70
70
70
70
70
70
70
70
00
00
00
20
70
78
70
ENDCHAR
STARTCHAR 1ECC
ENCODING 7884
SWIDTH 792 0
DWIDTH 22 0
BBX 21 27 1 -7
BITMAP
01F800
07FF00
1FFF80
3E03C0
3800E0
700070
700070
E00030
E00038
E00038
E00038
E00038
E00038
E00070
700070
7000E0
3C01E0
1F07C0
0FFF80
03FE00
000000
000000
000000
002000
007000
00F000
007000
ENDCHAR
STARTCHAR 1ECD
ENCODING 7885
SWIDTH 792 0
DWIDTH 22 0
BBX 21 27 1 -7
BITMAP
01F800
07FF00
1FFF80
3E03C0
3800E0
700070
700070
E00030
E00038
E00038
E00038
E00038
E00038
E00070
700070
7000E0
3C01E0
1F07C0
0FFF80
03FE00
000000
000000
000000
002000
007000
00F000
007000
ENDCHAR
STARTCHAR 1ECE
ENCODING 7886
SWIDTH 792 0
DWIDTH 22 0
BBX 21 26 1 0
BITMAP
002000
002000
006000
006000
006000
000000
01F800
07FF00
1FFF80
3E03C0
3800E0
700070
700070
E00030
E00038
E00038
E00038
E00038
E00038
E00070
700070
7000E0
3C01E0
1F07C0
0FFF80
03FE00
ENDCHAR
STARTCHAR 1ECF
ENCODING 7887
SWIDTH 792 0
DWIDTH 22 0
BBX 21 26 1 0
BITMAP
002000
002000
006000
006000
006000
000000
01F800
07FF00
1FFF80
3E03C0
3800E0
700070
700070
E00030
E00038
E00038
E00038
E00038
E00038
E00070
700070
7000E0
3C01E0
1F07C0
0FFF80
03FE00
ENDCHAR
STARTCHAR 1ED0
ENCODING 7888
SWIDTH 792 0
DWIDTH 22 0
BBX 21 27 1 0
BITMAP
0001C0
000180
007300
00F800
019C00
038C00
000000
01F800
07FF00
1FFF80
3E03C0
3800E0
700070
700070
E00030
E00038
E00038
E00038
E00038
E00038
E00070
700070
7000E0
3C01E0
1F07C0
0FFF80
03FE00
ENDCHAR
STARTCHAR 1ED1
ENCODING 7889
SWIDTH 792 0
DWIDTH 22 0
BBX 21 27 1 0
BITMAP
0001C0
000180
007300
00F800
019C00
038C00
000000
01F800
07FF00
1FFF80
3E03C0
3800E0
700070
700070
E00030
E00038
E00038
E00038
E00038
E00038
E00070
700070
7000E0
3C01E0
1F07C0
0FFF80
03FE00
ENDCHAR
STARTCHAR 1ED2
ENCODING 7890
SWIDTH 792 0
DWIDTH 22 0
BBX 21 27 1 0
BITMAP
180000
180000
0C7000
00F800
019800
038C00
000000
01F800
07FF00
1FFF80
3E03C0
3800E0
700070
700070
E00030
E00038
E00038
E00038
E00038
E00038
E00070
700070
7000E0
3C01E0
1F07C0
0FFF80
03FE00
ENDCHAR
STARTCHAR 1ED3
ENCODING 7891
SWIDTH 792 0
DWIDTH 22 0
BBX 21 27 1 0
BITMAP
180000
180000
0C7000
00F800
019800
038C00
000000
01F800
07FF00
1FFF80
3E03C0
3800E0
700070
700070
E00030
E00038
E00038
E00038
E00038
E00038
E00070
700070
7000E0
3C01E0
1F07C0
0FFF80
03FE00
ENDCHAR
STARTCHAR 1ED4
ENCODING 7892
SWIDTH 792 0
DWIDTH 22 0
BBX 21 29 1 0
BITMAP
000300
000300
000300
000200
007200
00FB00
019C00
038C00
000000
01F800
07FF00
1FFF80
3E03C0
3800E0
700070
700070
E00030
E00038
E00038
E00038
E00038
E00038
E00070
700070
7000E0
3C01E0
1F07C0
0FFF80
03FE00
ENDCHAR
STARTCHAR 1ED5
ENCODING 7893
SWIDTH 792 0
DWIDTH 22 0
BBX 21 29 1 0
BITMAP
000300
000300
000300
000200
007200
00FB00
019C00
038C00
000000
01F800
07FF00
1FFF80
3E03C0
3800E0
700070
700070
E00030
E00038
E00038
E00038
E00038
E00038
E00070
700070
7000E0
3C01E0
1F07C0
0FFF80
03FE00
ENDCHAR
STARTCHAR 1ED6
ENCODING 7894
SWIDTH 792 0
DWIDTH 22 0
BBX 21 28 1 0
BITMAP
001800
003F80
000100
007000
00F800
019C00
038C00
000000
01F800
07FF00
1FFF80
3E03C0
3800E0
700070
700070
E00030
E00038
E00038
E00038
E00038
E00038
E00070
700070
7000E0
3C01E0
1F07C0
0FFF80
03FE00
ENDCHAR
STARTCHAR 1ED7
ENCODING 7895
SWIDTH 792 0
DWIDTH 22 0
BBX 21 28 1 0
BITMAP
001800
003F80
000100
007000
00F800
019C00
038C00
000000
01F800
07FF00
1FFF80
3E03C0
3800E0
700070
700070
E00030
E00038
E00038
E00038
E00038
E00038
E00070
700070
7000E0
3C01E0
1F07C0
0FFF80
03FE00
ENDCHAR
STARTCHAR 1ED8
ENCODING 7896
SWIDTH 792 0
DWIDTH 22 0
BBX 21 32 1 -7
BITMAP
007000
00F800
019C00
038C00
000000
01F800
07FF00
1FFF80
3E03C0
3800E0
700070
700070
E00030
E00038
E00038
E00038
E00038
E00038
E00070
700070
7000E0
3C01E0
1F07C0
0FFF80
03FE00
000000
000000
000000
002000
007000
00F000
007000
ENDCHAR
STARTCHAR 1ED9
ENCODING 7897
SWIDTH 792 0
DWIDTH 22 0
BBX 21 32 1 -7
BITMAP
007000
00F800
019C00
038C00
000000
01F800
07FF00
1FFF80
3E03C0
3800E0
700070
700070
E00030
E00038
E00038
E00038
E00038
E00038
E00070
700070
7000E0
3C01E0
1F07C0
0FFF80
03FE00
000000
000000
000000
002000
007000
00F000
007000
ENDCHAR
STARTCHAR 1EDA
ENCODING 7898
SWIDTH 792 0
DWIDTH 22 0
BBX 21 25 1 0
BITMAP
001800
003000
003000
006060
0000C0
01F8C0
07FF80
1FFF80
3E03C0
3800E0
700070
700070
E00030
E00038
E00038
E00038
E00038
E00038
E00070
700070
7000E0
3C01E0
1F07C0
0FFF80
03FE00
ENDCHAR
STARTCHAR 1EDB
ENCODING 7899
SWIDTH 792 0
DWIDTH 22 0
BBX 21 25 1 0
BITMAP
001800
003000
003000
006060
0000C0
01F8C0
07FF80
1FFF80
3E03C0
3800E0
700070
700070
E00030
E00038
E00038
E00038
E00038
E00038
E00070
700070
7000E0
3C01E0
1F07C0
0FFF80
03FE00
ENDCHAR
STARTCHAR 1EDC
ENCODING 7900
SWIDTH 792 0
DWIDTH 22 0
BBX 21 25 1 0
BITMAP
01C000
00C000
006000
002060
0000C0
01F8C0
07FF80
1FFF80
3E03C0
3800E0
700070
700070
E00030
E00038
E00038
E00038
E00038
E00038
E00070
700070
7000E0
3C01E0
1F07C0
0FFF80
03FE00
ENDCHAR
STARTCHAR 1EDD
ENCODING 7901
SWIDTH 792 0
DWIDTH 22 0
BBX 21 25 1 0
BITMAP
01C000
00C000
006000
002060
0000C0
01F8C0
07FF80
1FFF80
3E03C0
3800E0
700070
700070
E00030
E00038
E00038
E00038
E00038
E00038
E00070
700070
7000E0
3C01E0
1F07C0
0FFF80
03FE00
ENDCHAR
STARTCHAR 1EDE
ENCODING 7902
SWIDTH 792 0
DWIDTH 22 0
BBX 21 26 1 0
BITMAP
002000
002000
006000
006000
006060
0000C0
01F8C0
07FF80
1FFF80
3E03C0
3800E0
700070
700070
E00030
E00038
E00038
E00038
E00038
E00038
E00070
700070
7000E0
3C01E0
1F07C0
0FFF80
03FE00
ENDCHAR
STARTCHAR 1EDF
ENCODING 7903
SWIDTH 792 0
DWIDTH 22 0
BBX 21 26 1 0
BITMAP
002000
002000
006000
006000
006060
0000C0
01F8C0
07FF80
1FFF80
3E03C0
3800E0
700070
700070
E00030
E00038
E00038
E00038
E00038
E00038
E00070
700070
7000E0
3C01E0
1F07C0
0FFF80
03FE00
ENDCHAR
STARTCHAR 1EE0
ENCODING 7904
SWIDTH 792 0
DWIDTH 22 0
BBX 21 25 1 0
BITMAP
008000
01F800
003800
000060
0000C0
01F8C0
07FF80
1FFF80
3E03C0
3800E0
700070
700070
E00030
E00038
E00038
E00038
E00038
E00038
E00070
700070
7000E0
3C01E0
1F07C0
0FFF80
03FE00
ENDCHAR
STARTCHAR 1EE1
ENCODING 7905
SWIDTH 792 0
DWIDTH 22 0
BBX 21 25 1 0
BITMAP
008000
01F800
003800
000060
0000C0
01F8C0
07FF80
1FFF80
3E03C0
3800E0
700070
700070
E00030
E00038
E00038
E00038
E00038
E00038
E00070
700070
7000E0
3C01E0
1F07C0
0FFF80
03FE00
ENDCHAR
STARTCHAR 1EE2
ENCODING 7906
SWIDTH 792 0
DWIDTH 22 0
BBX 21 29 1 -7
BITMAP
000060
0000C0
01F8C0
07FF80
1FFF80
3E03C0
3800E0
700070
700070
E00030
E00038
E00038
E00038
E00038
E00038
E00070
700070
7000E0
3C01E0
1F07C0
0FFF80
03FE00
000000
000000
000000
002000
007000
00F000
007000
ENDCHAR
STARTCHAR 1EE3
ENCODING 7907
SWIDTH 792 0
DWIDTH 22 0
BBX 21 29 1 -7
BITMAP
000060
0000C0
01F8C0
07FF80
1FFF80
3E03C0
3800E0
700070
700070
E00030
E00038
E00038
E00038
E00038
E00038
E00070
700070
7000E0
3C01E0
1F07C0
0FFF80
03FE00
000000
000000
000000
002000
007000
00F000
007000
ENDCHAR
STARTCHAR 1EE4
ENCODING 7908
SWIDTH 504 0
DWIDTH 14 0
BBX 12 26 1 -7
BITMAP
E070
E070
E070
E070
E070
E070
E070
E070
E070
E070
E070
E070
E070
E070
E070
6070
70E0
3FC0
1F80
0000
0000
0000
0000
0F00
0F00
0F00
ENDCHAR
STARTCHAR 1EE5
ENCODING 7909
SWIDTH 504 0
DWIDTH 14 0
BBX 12 26 1 -7
BITMAP
E070
E070
E070
E070
E070
E070
E070
E070
E070
E070
E070
E070
E070
E070
E070
6070
70E0
3FC0
1F80
0000
0000
0000
0000
0F00
0F00
0F00
ENDCHAR
STARTCHAR 1EE6
ENCODING 7910
SWIDTH 504 0
DWIDTH 14 0
BBX 12 26 1 0
BITMAP
0600
0600
0600
0600
0600
0000
0000
E070
E070
E070
E070
E070
E070
E070
E070
E070
E070
E070
E070
E070
E070
E070
6070
70E0
3FC0
1F80
ENDCHAR
STARTCHAR 1EE7
ENCODING 7911
SWIDTH 504 0
DWIDTH 14 0
BBX 12 26 1 0
BITMAP
0600
0600
0600
0600
0600
0000
0000
E070
E070
E070
E070
E070
E070
E070
E070
E070
E070
E070
E070
E070
E070
E070
6070
70E0
3FC0
1F80
ENDCHAR
STARTCHAR 1EE8
ENCODING 7912
SWIDTH 504 0
DWIDTH 14 0
BBX 14 25 1 0
BITMAP
0180
0300
0200
060C
000C
0018
E070
E070
E070
E070
E070
E070
E070
E070
E070
E070
E070
E070
E070
E070
E070
6070
70E0
3FC0
1F80
ENDCHAR
STARTCHAR 1EE9
ENCODING 7913
SWIDTH 504 0
DWIDTH 14 0
BBX 14 25 1 0
BITMAP
0180
0300
0200
060C
000C
0018
E070
E070
E070
E070
E070
E070
E070
E070
E070
E070
E070
E070
E070
E070
E070
6070
70E0
3FC0
1F80
ENDCHAR
STARTCHAR 1EEA
ENCODING 7914
SWIDTH 504 0
DWIDTH 14 0
BBX 14 25 1 0
BITMAP
1800
0C00
0600
060C
000C
0018
E070
E070
E070
E070
E070
E070
E070
E070
E070
E070
E070
E070
E070
E070
E070
6070
70E0
3FC0
1F80
ENDCHAR
STARTCHAR 1EEB
ENCODING 7915
SWIDTH 504 0
DWIDTH 14 0
BBX 14 25 1 0
BITMAP
1800
0C00
0600
060C
000C
0018
E070
E070
E070
E070
E070
E070
E070
E070
E070
E070
E070
E070
E070
E070
E070
6070
70E0
3FC0
1F80
ENDCHAR
STARTCHAR 1EEC
ENCODING 7916
SWIDTH 504 0
DWIDTH 14 0
BBX 14 26 1 0
BITMAP
0600
0600
0600
0600
060C
000C
0018
E070
E070
E070
E070
E070
E070
E070
E070
E070
E070
E070
E070
E070
E070
E070
6070
70E0
3FC0
1F80
ENDCHAR
STARTCHAR 1EED
ENCODING 7917
SWIDTH 504 0
DWIDTH 14 0
BBX 14 26 1 0
BITMAP
0600
0600
0600
0600
060C
000C
0018
E070
E070
E070
E070
E070
E070
E070
E070
E070
E070
E070
E070
E070
E070
E070
6070
70E0
3FC0
1F80
ENDCHAR
STARTCHAR 1EEE
ENCODING 7918
SWIDTH 504 0
DWIDTH 14 0
BBX 14 25 1 0
BITMAP
1000
3F80
0380
000C
000C
0018
E070
E070
E070
E070
E070
E070
E070
E070
E070
E070
E070
E070
E070
E070
E070
6070
70E0
3FC0
1F80
ENDCHAR
STARTCHAR 1EEF
ENCODING 7919
SWIDTH 504 0
DWIDTH 14 0
BBX 14 25 1 0
BITMAP
1000
3F80
0380
000C
000C
0018
E070
E070
E070
E070
E070
E070
E070
E070
E070
E070
E070
E070
E070
E070
E070
6070
70E0
3FC0
1F80
ENDCHAR
STARTCHAR 1EF0
ENCODING 7920
SWIDTH 504 0
DWIDTH 14 0
BBX 14 29 1 -7
BITMAP
000C
000C
0018
E070
E070
E070
E070
E070
E070
E070
E070
E070
E070
E070
E070
E070
E070
E070
6070
70E0
3FC0
1F80
0000
0000
0000
0000
0F00
0F00
0F00
ENDCHAR
STARTCHAR 1EF1
ENCODING 7921
SWIDTH 504 0
DWIDTH 14 0
BBX 14 29 1 -7
BITMAP
000C
000C
0018
E070
E070
E070
E070
E070
E070
E070
E070
E070
E070
E070
E070
E070
E070
E070
6070
70E0
3FC0
1F80
0000
0000
0000
0000
0F00
0F00
0F00
ENDCHAR
STARTCHAR 1EF2
ENCODING 7922
SWIDTH 468 0
DWIDTH 13 0
BBX 12 25 1 0
BITMAP
1800
0C00
0400
0600
0000
0000
E070
E070
E070
E070
E070
E070
E070
E070
E070
E070
E060
70E0
3FC0
1F80
0600
0600
0600
0600
0600
ENDCHAR
STARTCHAR 1EF3
ENCODING 7923
SWIDTH 468 0
DWIDTH 13 0
BBX 12 25 1 0
BITMAP
1800
0C00
0400
0600
0000
0000
E070
E070
E070
E070
E070
E070
E070
E070
E070
E070
E060
70E0
3FC0
1F80
0600
0600
0600
0600
0600
ENDCHAR
STARTCHAR 1EF4
ENCODING 7924
SWIDTH 468 0
DWIDTH 13 0
BBX 12 26 1 -7
BITMAP
E070
E070
E070
E070
E070
E070
E070
E070
E070
E070
E060
70E0
3FC0
1F80
0600
0600
0600
0600
0600
0000
0000
0000
0400
0F00
0F00
0F00
ENDCHAR
STARTCHAR 1EF5
ENCODING 7925
SWIDTH 468 0
DWIDTH 13 0
BBX 12 26 1 -7
BITMAP
E070
E070
E070
E070
E070
E070
E070
E070
E070
E070
E060
70E0
3FC0
1F80
0600
0600
0600
0600
0600
0000
0000
0000
0400
0F00
0F00
0F00
ENDCHAR
STARTCHAR 1EF6
ENCODING 7926
SWIDTH 468 0
DWIDTH 13 0
BBX 12 26 1 0
BITMAP
0600
0600
0600
0400
0600
0000
0000
E070
E070
E070
E070
E070
E070
E070
E070
E070
E070
E060
70E0
3FC0
1F80
0600
0600
0600
0600
0600
ENDCHAR
STARTCHAR 1EF7
ENCODING 7927
SWIDTH 468 0
DWIDTH 13 0
BBX 12 26 1 0
BITMAP
0600
0600
0600
0400
0600
0000
0000
E070
E070
E070
E070
E070
E070
E070
E070
E070
E070
E060
70E0
3FC0
1F80
0600
0600
0600
0600
0600
ENDCHAR
STARTCHAR 1EF8
ENCODING 7928
SWIDTH 468 0
DWIDTH 13 0
BBX 12 24 1 1
BITMAP
3F80
0300
0000
0000
0000
E070
E070
E070
E070
E070
E070
E070
E070
E070
E070
E060
70E0
3FC0
1F80
0600
0600
0600
0600
0600
ENDCHAR
STARTCHAR 1EF9
ENCODING 7929
SWIDTH 468 0
DWIDTH 13 0
BBX 12 24 1 1
BITMAP
3F80
0300
0000
0000
0000
E070
E070
E070
E070
E070
E070
E070
E070
E070
E070
E060
70E0
3FC0
1F80
0600
0600
0600
0600
0600
ENDCHAR
STARTCHAR 2013
ENCODING 8211
SWIDTH 576 0
DWIDTH 16 0
BBX 14 2 1 6
BITMAP
FFFC
FFFC
ENDCHAR
STARTCHAR 2014
ENCODING 8212
SWIDTH 792 0
DWIDTH 22 0
BBX 20 2 1 6
BITMAP
FFFFF0
FFFFF0
ENDCHAR
STARTCHAR 2018
ENCODING 8216
SWIDTH 216 0
DWIDTH 6 0
BBX 3 5 2 14
BITMAP
60
60
C0
C0
C0
ENDCHAR
STARTCHAR 2019
ENCODING 8217
SWIDTH 216 0
DWIDTH 6 0
BBX 3 5 2 14
BITMAP
E0
C0
C0
C0
80
ENDCHAR
STARTCHAR 201A
ENCODING 8218
SWIDTH 216 0
DWIDTH 6 0
BBX 3 5 2 -3
BITMAP
E0
C0
C0
C0
80
ENDCHAR
STARTCHAR 201C
ENCODING 8220
SWIDTH 396 0
DWIDTH 11 0
BBX 8 5 2 14
BITMAP
63
62
66
C6
CE
ENDCHAR
STARTCHAR 201D
ENCODING 8221
SWIDTH 396 0
DWIDTH 11 0
BBX 7 5 2 14
BITMAP
E6
C6
C6
CC
8C
ENDCHAR
STARTCHAR 201E
ENCODING 8222
SWIDTH 396 0
DWIDTH 11 0
BBX 8 5 2 -3
BITMAP
E3
C7
C6
C6
86
ENDCHAR
STARTCHAR 2020
ENCODING 8224
SWIDTH 396 0
DWIDTH 11 0
BBX 9 13 1 7
BITMAP
0C00
0C00
0C00
FF80
FF80
0C00
0C00
0C00
0C00
0C00
0C00
0C00
0C00
ENDCHAR
STARTCHAR 2021
ENCODING 8225
SWIDTH 396 0
DWIDTH 11 0
BBX 9 13 1 7
BITMAP
0C00
0C00
0C00
FF80
FF80
0C00
0C00
0C00
0C00
FF80
0C00
0C00
0C00
ENDCHAR
STARTCHAR 2022
ENCODING 8226
SWIDTH 288 0
DWIDTH 8 0
BBX 6 6 1 5
BITMAP
10
7C
7C
FC
7C
78
ENDCHAR
STARTCHAR 2026
ENCODING 8230
SWIDTH 648 0
DWIDTH 18 0
BBX 16 4 1 0
BITMAP
2186
73CF
FBCF
71C7
ENDCHAR
STARTCHAR 2030
ENCODING 8240
SWIDTH 1260 0
DWIDTH 35 0
BBX 33 20 1 0
BITMAP
0E00600000
3F80C00000
7381C00000
61C1800000
E0C3000000
E0C7000000
61C6000000
7B8C000000
3F1C000000
0418000000
0030000000
0061E03E00
00E7F87F00
00C618E380
018E1CC180
038C0CC180
030E1CC180
060618E380
0E07F87F00
0C03F03E00
ENDCHAR
STARTCHAR 2039
ENCODING 8249
SWIDTH 360 0
DWIDTH 10 0
BBX 8 13 1 2
BITMAP
07
0E
0C
18
38
70
E0
70
38
18
1C
0E
07
ENDCHAR
STARTCHAR 203A
ENCODING 8250
SWIDTH 360 0
DWIDTH 10 0
BBX 7 13 2 2
BITMAP
C0
E0
70
30
18
1C
0E
1C
18
30
70
E0
C0
ENDCHAR
STARTCHAR 2044
ENCODING 8260
SWIDTH 648 0
DWIDTH 18 0
BBX 15 19 2 0
BITMAP
000E
000C
0018
0030
0030
0060
00C0
01C0
0180
0300
0700
0600
0C00
1800
1800
3000
6000
E000
C000
ENDCHAR
STARTCHAR 20AC
ENCODING 8364
SWIDTH 648 0
DWIDTH 18 0
BBX 16 20 1 0
BITMAP
001E
00FF
01FF
07C0
0700
0E00
0C00
1C00
FFF8
1C00
1C00
FFF8
FFF8
1C00
0E00
0F00
0780
03E3
01FF
007F
ENDCHAR
STARTCHAR 2122
ENCODING 8482
SWIDTH 792 0
DWIDTH 22 0
BBX 20 11 1 9
BITMAP
FF0430
FF8630
18E7B0
18FFF0
18DE70
18CE30
18C630
18C630
18C630
18C630
18C630
ENDCHAR
STARTCHAR 2190
ENCODING 8592
SWIDTH 792 0
DWIDTH 22 0
BBX 19 12 2 4
BITMAP
060000
0E0000
1C0000
380000
700000
FFFFE0
FFFFE0
700000
380000
1C0000
0E0000
060000
ENDCHAR
STARTCHAR 2191
ENCODING 8593
SWIDTH 576 0
DWIDTH 16 0
BBX 13 20 2 0
BITMAP
0200
0700
0F80
1FC0
36E0
6670
C638
8610
0600
0600
0600
0600
0600
0600
0600
0600
0600
0600
0600
0600
ENDCHAR
STARTCHAR 2192
ENCODING 8594
SWIDTH 792 0
DWIDTH 22 0
BBX 20 12 1 4
BITMAP
000600
000700
000380
0001C0
0000E0
FFFFF0
FFFFF0
0000E0
0001C0
000380
000700
000600
ENDCHAR
STARTCHAR 2193
ENCODING 8595
SWIDTH 576 0
DWIDTH 16 0
BBX 12 19 2 -1
BITMAP
0600
0600
0600
0600
0600
0600
0600
0600
0600
0600
0600
0600
C630
E670
76E0
3FC0
1F80
0F00
0600
ENDCHAR
STARTCHAR 2194
ENCODING 8596
SWIDTH 864 0
DWIDTH 24 0
BBX 21 12 2 4
BITMAP
060300
0E0380
1C01C0
3800E0
700070
FFFFF8
FFFFF8
700070
3800E0
1C01C0
0E0380
060300
ENDCHAR
STARTCHAR 2195
ENCODING 8597
SWIDTH 612 0
DWIDTH 17 0
BBX 14 20 2 -1
BITMAP
0200
0780
0FC0
3FE0
7370
E338
C31C
0300
0300
0300
0300
0300
0300
8308
E31C
7338
3BF0
1FC0
0F80
0700
ENDCHAR
STARTCHAR 2196
ENCODING 8598
SWIDTH 612 0
DWIDTH 17 0
BBX 15 15 1 2
BITMAP
FFC0
FFC0
F800
FC00
EE00
EF00
E780
E3C0
E1E0
00F0
0078
003C
001E
000E
0004
ENDCHAR
STARTCHAR 2197
ENCODING 8599
SWIDTH 612 0
DWIDTH 17 0
BBX 14 15 2 2
BITMAP
07FC
07FC
003C
007C
00EC
01CC
038C
070C
0E0C
1C00
3800
7000
F000
E000
4000
ENDCHAR
STARTCHAR 2198
ENCODING 8600
SWIDTH 612 0
DWIDTH 17 0
BBX 14 15 2 2
BITMAP
4000
E000
F000
7800
3C00
1E0C
0F0C
078C
03CC
01EC
00FC
007C
003C
07FC
07FC
ENDCHAR
STARTCHAR 2199
ENCODING 8601
SWIDTH 612 0
DWIDTH 17 0
BBX 15 15 1 2
BITMAP
0004
000E
001E
003C
0078
E0F0
E1E0
E380
E700
EE00
FC00
F800
F000
FFC0
FFC0
ENDCHAR
STARTCHAR 2202
ENCODING 8706
SWIDTH 540 0
DWIDTH 15 0
BBX 13 21 1 0
BITMAP
0800
0C00
1F00
0780
03C0
01E0
0070
0070
0038
1FB8
3FF8
7878
7038
7018
6018
E038
6038
7070
78F0
3FE0
1FC0
ENDCHAR
STARTCHAR 2205
ENCODING 8709
SWIDTH 720 0
DWIDTH 20 0
BBX 18 17 1 2
BITMAP
07F8C0
0E1F80
180700
300700
600D80
601880
403080
40E0C0
41C0C0
438080
670080
6E0180
3C0300
380700
7E1E00
E7F800
400000
ENDCHAR
STARTCHAR 220F
ENCODING 8719
SWIDTH 612 0
DWIDTH 17 0
BBX 15 23 1 -3
BITMAP
FFFE
FFFE
3838
3838
3838
3838
3838
3838
3838
3838
3838
3838
3838
3838
3838
3838
3838
3838
3838
3838
3838
3838
3838
ENDCHAR
STARTCHAR 2211
ENCODING 8721
SWIDTH 468 0
DWIDTH 13 0
BBX 11 23 1 -3
BITMAP
FFE0
FFE0
6000
7000
3000
3800
1C00
1C00
0E00
0600
0700
0300
0700
0600
0E00
1C00
1800
3800
3000
7000
6000
FFE0
FFE0
ENDCHAR
STARTCHAR 2212
ENCODING 8722
SWIDTH 540 0
DWIDTH 15 0
BBX 13 2 1 8
BITMAP
FFF8
FFF8
ENDCHAR
STARTCHAR 221A
ENCODING 8730
SWIDTH 648 0
DWIDTH 18 0
BBX 16 23 1 -3
BITMAP
003F
003F
0030
0030
0070
0070
0060
0060
00E0
00C0
00C0
E1C0
61C0
7180
7180
3380
3300
3B00
1B00
1F00
1E00
0E00
0E00
ENDCHAR
STARTCHAR 221E
ENCODING 8734
SWIDTH 792 0
DWIDTH 22 0
BBX 20 9 1 5
BITMAP
3F0FC0
739EE0
60F870
407030
C07030
60F030
739C60
3F0FC0
0C0300
ENDCHAR
STARTCHAR 222B
ENCODING 8747
SWIDTH 468 0
DWIDTH 13 0
BBX 11 23 1 -3
BITMAP
00E0
01E0
0180
0380
0300
0300
0300
0300
0700
0600
0600
0600
0600
0E00
0E00
0C00
0C00
0C00
0C00
1C00
1800
F800
F000
ENDCHAR
STARTCHAR 2248
ENCODING 8776
SWIDTH 540 0
DWIDTH 15 0
BBX 13 8 1 5
BITMAP
FF98
FFF8
00E0
0000
0000
7800
FFF8
C7F8
ENDCHAR
STARTCHAR 2260
ENCODING 8800
SWIDTH 540 0
DWIDTH 15 0
BBX 13 14 1 2
BITMAP
00C0
01C0
0180
FFF8
FFF8
0300
0700
0600
0600
FFF8
FFF8
0C00
1C00
1800
ENDCHAR
STARTCHAR 2264
ENCODING 8804
SWIDTH 540 0
DWIDTH 15 0
BBX 13 11 1 3
BITMAP
0078
07F8
7F80
F000
FE00
1FE0
01F8
0008
0000
FFF8
FFF8
ENDCHAR
STARTCHAR 2265
ENCODING 8805
SWIDTH 540 0
DWIDTH 15 0
BBX 13 11 1 3
BITMAP
F800
7F80
07F8
0078
01F8
3FC0
FC00
C000
0000
FFF8
FFF8
ENDCHAR
STARTCHAR 25CA
ENCODING 9674
SWIDTH 468 0
DWIDTH 13 0
BBX 10 16 2 2
BITMAP
1C00
1E00
3600
3300
7300
6180
E180
C0C0
C1C0
E180
6180
7300
3300
3E00
1E00
1C00
ENDCHAR
ENDFONT
